<?xml version="1.0" standalone="no"?>
<!DOCTYPE svg PUBLIC "-//W3C//DTD SVG 20010904//EN"
 "http://www.w3.org/TR/2001/REC-SVG-20010904/DTD/svg10.dtd">
<svg version="1.0" xmlns="http://www.w3.org/2000/svg"
 width="300.000000pt" height="300.000000pt" viewBox="0 0 300.000000 300.000000"
 preserveAspectRatio="xMidYMid meet">
<metadata>
Created by potrace 1.10, written by Peter Selinger 2001-2011
</metadata>
<g transform="translate(0.000000,300.000000) scale(0.100000,-0.100000)"
fill="#000000" stroke="none">
<path d="M1323 2880 c-44 -20 -79 -55 -64 -64 6 -4 8 -13 4 -21 -6 -18 13 -20
23 -3 4 6 0 16 -9 23 -16 11 -15 13 1 28 43 38 141 44 204 11 15 -8 28 -10 28
-5 0 10 -73 36 -122 44 -15 2 -44 -4 -65 -13z"/>
<path d="M1520 2842 c0 -4 29 -19 63 -34 244 -106 370 -158 374 -155 2 3 -31
19 -73 37 -43 18 -85 36 -93 41 -38 21 -271 117 -271 111z"/>
<path d="M1186 2788 c-8 -13 -17 -33 -21 -46 -3 -12 -15 -27 -26 -32 -22 -12
-26 -32 -5 -24 16 6 72 -58 81 -94 4 -16 0 -31 -11 -43 -19 -21 -5 -26 26 -9
16 8 55 -7 207 -83 103 -52 244 -120 313 -152 69 -33 127 -60 129 -62 2 -1
-39 -53 -91 -115 -132 -159 -149 -182 -199 -278 -27 -51 -69 -111 -108 -152
-61 -65 -65 -68 -110 -68 -67 0 -143 -40 -182 -97 -59 -86 -72 -140 -77 -328
-2 -93 0 -180 5 -192 5 -13 8 49 8 155 0 155 3 186 22 248 38 120 105 190 195
202 36 4 40 3 35 -12 -6 -14 -2 -14 31 3 56 29 110 88 177 195 33 53 85 132
115 175 59 85 180 229 193 230 11 1 87 -50 87 -59 0 -11 -83 -111 -153 -186
-37 -39 -56 -67 -51 -75 4 -8 3 -10 -5 -5 -12 8 -58 -41 -54 -56 2 -4 -4 -5
-12 -2 -11 4 -13 2 -9 -9 4 -11 0 -15 -13 -13 -10 2 -13 1 -7 -1 14 -5 -172
-193 -192 -193 -18 0 -128 -109 -119 -118 3 -4 24 15 47 41 22 26 57 56 77 67
46 24 337 310 316 310 -7 0 240 276 326 365 32 33 75 82 96 108 20 27 62 67
93 89 35 25 46 38 30 33 -48 -14 -100 -60 -189 -169 -35 -41 -72 -78 -83 -82
-26 -8 -71 15 -59 30 14 17 92 278 89 295 -2 9 -14 -20 -26 -64 -43 -148 -63
-210 -70 -222 -6 -10 -18 -9 -51 4 -38 15 -41 18 -26 29 9 7 12 15 6 18 -5 4
-14 -1 -18 -9 -8 -13 -21 -10 -97 26 -48 22 -89 39 -92 37 -2 -3 20 -15 49
-29 28 -13 53 -27 55 -31 2 -4 21 -12 43 -18 21 -6 39 -15 39 -20 0 -6 7 -10
15 -10 8 0 15 -4 15 -10 0 -5 10 -10 23 -10 12 0 33 -9 47 -20 l25 -19 -19
-35 -19 -35 -31 16 c-56 28 -87 55 -82 69 3 9 -20 25 -72 50 -247 117 -388
190 -385 200 2 7 14 10 26 7 22 -5 22 -5 2 9 -11 7 -48 27 -83 43 -56 26 -66
28 -95 17 -47 -17 -54 -15 -62 15 -3 15 -21 48 -39 73 l-33 46 31 22 31 22 5
-42 c9 -63 44 -118 76 -118 10 0 6 11 -15 38 -34 42 -50 102 -40 150 9 42 -4
41 -32 -5 -13 -20 -25 -31 -27 -24 -2 6 3 23 12 36 9 14 14 25 11 25 -2 0 -11
-10 -19 -22z"/>
<path d="M1070 2659 c0 -6 -15 -8 -43 -4 -37 6 -46 3 -67 -18 -14 -13 -38 -27
-55 -31 -16 -4 -38 -16 -47 -26 -10 -11 -33 -22 -50 -25 -23 -5 -41 -19 -60
-46 -15 -21 -23 -39 -18 -39 6 0 10 -4 10 -9 0 -4 -10 -6 -22 -4 -28 4 -178
-111 -178 -136 1 -40 16 -38 103 12 78 44 99 64 112 104 0 0 25 4 57 8 51 6
57 5 63 -14 12 -38 -64 -109 -86 -79 -7 11 -198 -104 -199 -119 0 -27 47 -24
126 7 43 17 88 37 100 45 11 7 43 17 70 21 31 4 54 14 63 26 7 11 33 28 57 38
26 12 44 26 44 35 0 9 6 15 13 12 24 -8 64 21 70 53 4 17 13 30 21 30 20 0 26
12 19 39 -4 17 -8 19 -14 10 -6 -10 -11 -5 -19 16 -6 17 -23 42 -38 58 -31 33
-19 36 17 5 21 -19 20 -17 -3 10 -30 33 -46 40 -46 21z m-2 -55 c12 -8 29 -29
38 -45 12 -25 13 -35 3 -58 -11 -25 -14 -26 -29 -12 -9 9 -15 21 -13 27 2 5
-7 26 -20 45 -12 19 -26 40 -31 47 -11 18 25 15 52 -4z m-43 -34 c10 0 15 -10
15 -30 0 -17 9 -39 20 -50 25 -25 20 -34 -25 -56 -33 -15 -37 -15 -60 0 -14 9
-30 14 -34 11 -14 -8 -40 5 -51 26 -13 23 7 70 26 62 20 -7 44 15 44 42 0 32
9 36 31 14 10 -10 26 -19 34 -19z m-75 0 c0 -25 -25 -36 -45 -20 -20 16 -7 40
21 40 17 0 24 -6 24 -20z m-80 -74 c0 -8 -4 -18 -10 -21 -5 -3 -10 -1 -10 5 0
8 -13 10 -42 5 -39 -7 -41 -6 -29 9 17 21 91 22 91 2z m70 -100 c0 -8 -5 -18
-10 -21 -6 -4 -8 -16 -5 -28 2 -12 2 -17 0 -11 -3 6 -18 9 -33 6 -25 -5 -26
-4 -12 14 43 57 60 68 60 40z"/>
<path d="M1500 2555 c0 -5 139 -75 149 -75 11 0 -53 36 -102 58 -26 12 -47 19
-47 17z"/>
<path d="M2524 2480 c38 -22 70 -39 71 -38 7 7 -83 67 -110 73 -21 5 -10 -5
39 -35z"/>
<path d="M1961 2474 c-1 -22 44 -51 54 -35 2 5 -6 12 -19 15 -14 3 -27 14 -29
24 -4 14 -5 13 -6 -4z"/>
<path d="M2579 2153 c-19 -25 -39 -55 -45 -65 -6 -10 -14 -15 -17 -12 -4 4
-89 -75 -189 -175 -100 -100 -193 -184 -205 -187 -13 -4 -34 -4 -47 -2 -21 4
-23 3 -13 -13 15 -24 -2 -43 -54 -58 -36 -11 -45 -10 -85 9 -47 23 -85 65
-102 115 -7 21 -11 24 -11 11 -1 -31 36 -100 66 -122 32 -24 87 -44 117 -44
47 0 159 89 339 268 101 100 191 182 199 182 8 0 23 7 34 15 16 13 16 14 2 9
-24 -8 -23 9 3 32 22 20 53 73 47 80 -3 2 -20 -17 -39 -43z"/>
<path d="M1321 1573 c-70 -35 -131 -127 -131 -197 0 -43 22 -98 53 -132 29
-34 32 -43 37 -126 5 -88 5 -90 -20 -104 -19 -10 -21 -13 -7 -14 15 0 21 -11
18 -32 0 -4 -3 -23 -5 -43 -3 -20 -13 -44 -23 -52 -16 -14 -15 -14 7 -1 37 22
49 72 50 210 1 165 2 158 -14 152 -19 -7 -63 49 -77 99 -22 80 23 179 99 219
24 12 45 25 48 30 7 11 4 10 -35 -9z"/>
<path d="M1914 1543 c-27 -21 -60 -50 -73 -66 -17 -20 -27 -25 -36 -17 -10 8
-12 -2 -8 -54 6 -71 -8 -143 -43 -222 -13 -29 -20 -54 -17 -58 3 -3 1 -11 -5
-18 -14 -18 -32 -89 -25 -101 3 -5 28 58 55 139 39 115 51 166 53 224 3 82 -1
76 115 172 59 48 47 49 -16 1z"/>
<path d="M1520 1283 c1 -19 44 -57 77 -68 55 -19 128 8 154 57 10 19 6 17 -24
-9 -46 -40 -94 -50 -136 -29 -17 9 -37 25 -44 36 -12 20 -27 27 -27 13z"/>
<path d="M1102 910 c-6 -36 -14 -85 -18 -110 -4 -25 -14 -54 -23 -65 -14 -17
-16 -42 -11 -185 3 -110 8 -156 14 -138 4 15 6 74 4 131 l-3 104 45 -14 c73
-22 293 -37 395 -27 85 9 79 10 -90 10 -172 1 -278 12 -331 36 -18 9 -23 16
-18 32 9 29 7 29 66 11 29 -9 89 -18 133 -20 l80 -4 -68 9 c-145 18 -205 39
-190 64 4 6 8 13 9 16 0 3 3 16 7 30 3 14 8 43 11 65 3 22 7 47 11 56 3 8 2
26 -3 39 -8 21 -11 15 -20 -40z"/>
<path d="M1690 890 c0 -3 9 -38 20 -79 20 -70 20 -74 3 -87 -28 -20 -116 -36
-248 -45 l-120 -7 135 3 c89 2 154 9 190 20 91 27 95 26 98 -22 l3 -41 103 1
c57 1 102 5 100 9 -2 3 -47 21 -100 38 -108 36 -139 62 -149 124 -5 34 -33
104 -35 86z"/>
<path d="M1015 370 c-3 -5 -3 -10 2 -10 4 0 0 -5 -9 -11 -30 -17 -22 -36 12
-31 25 4 30 9 30 33 0 29 -22 40 -35 19z"/>
<path d="M1864 315 c-4 -8 -17 -15 -29 -15 -24 0 -42 -16 -31 -28 4 -3 15 -1
25 5 10 7 36 9 60 6 25 -4 46 -1 56 7 18 15 10 31 -10 23 -8 -3 -15 0 -15 6 0
17 -50 13 -56 -4z"/>
<path d="M1052 273 c4 -24 60 -59 105 -68 21 -3 46 -16 55 -28 10 -12 18 -16
18 -9 0 8 18 12 53 13 60 1 114 17 60 18 -18 1 -36 8 -41 17 -5 10 -18 14 -33
12 l-24 -5 25 -11 c22 -11 21 -12 -15 -6 -22 4 -50 6 -63 6 -30 -2 -99 33
-114 58 -16 25 -31 26 -26 3z"/>
</g>
</svg>
