<?xml version="1.0" standalone="no"?>
<!DOCTYPE svg PUBLIC "-//W3C//DTD SVG 20010904//EN"
 "http://www.w3.org/TR/2001/REC-SVG-20010904/DTD/svg10.dtd">
<svg version="1.0" xmlns="http://www.w3.org/2000/svg"
 width="300.000000pt" height="200.000000pt" viewBox="0 0 300.000000 200.000000"
 preserveAspectRatio="xMidYMid meet">
<metadata>
Created by potrace 1.10, written by Peter Selinger 2001-2011
</metadata>
<g transform="translate(0.000000,200.000000) scale(0.100000,-0.100000)"
fill="#000000" stroke="none">
<path d="M1330 1851 c-45 -14 -94 -42 -142 -82 -43 -36 -51 -39 -107 -39 -34
0 -61 -3 -61 -7 0 -5 -55 -9 -123 -10 -128 -2 -173 7 -183 40 -5 15 -16 17
-82 15 -67 -3 -78 -6 -86 -24 -5 -11 -19 -25 -30 -30 -24 -11 -80 -113 -98
-178 -12 -46 -3 -98 27 -156 7 -14 29 -57 49 -97 48 -95 71 -110 177 -119 71
-5 87 -4 98 10 7 9 25 16 40 16 14 0 51 7 81 15 65 18 262 22 303 6 45 -17 89
-14 85 6 -4 23 -28 29 -29 6 0 -14 -2 -15 -7 -3 -4 9 -21 15 -42 15 -19 0 -44
4 -55 9 -11 5 -36 9 -56 7 -21 -1 -40 3 -44 8 -3 6 -10 9 -15 6 -4 -3 -19 8
-33 25 -64 76 -51 238 25 317 18 18 29 36 25 39 -7 7 -62 -29 -94 -62 -23 -23
-32 -61 -13 -49 6 3 10 0 10 -9 0 -8 -5 -16 -10 -18 -7 -2 -12 -42 -13 -95 -2
-91 -1 -93 29 -123 17 -17 42 -32 57 -34 50 -5 41 -16 -14 -16 -61 0 -65 2
-97 48 -16 23 -20 37 -14 50 12 22 23 202 13 202 -4 0 -8 -6 -8 -12 -1 -7 -8
-46 -16 -86 -8 -40 -13 -82 -10 -92 4 -14 -2 -23 -20 -31 -26 -12 -56 -69 -36
-69 5 0 9 -9 9 -20 0 -15 -6 -19 -22 -16 -13 2 -32 -3 -44 -10 -43 -29 -47 30
-5 75 16 17 26 31 22 31 -17 0 -54 -51 -60 -82 -6 -29 -11 -33 -43 -36 -66 -6
-102 19 -162 110 -41 61 -59 98 -67 141 -10 56 -5 116 11 127 4 3 22 33 39 68
17 34 35 62 39 62 4 0 20 12 35 26 22 20 34 24 57 19 17 -4 30 -11 30 -16 0
-6 12 -9 28 -7 15 2 32 -3 38 -11 7 -10 43 -14 131 -15 97 -1 119 -4 111 -14
-6 -7 -8 -16 -4 -19 4 -4 10 -3 14 3 5 7 30 8 76 4 78 -9 101 -7 102 6 2 27
19 44 43 44 15 0 31 8 38 19 19 30 93 77 150 96 61 20 105 11 176 -36 55 -36
59 -49 16 -49 -25 0 -30 3 -25 18 6 16 5 16 -8 0 -10 -14 -28 -18 -83 -18
-116 0 -190 -10 -190 -27 0 -11 8 -13 31 -9 42 8 290 28 350 27 27 0 54 -5 59
-10 8 -8 7 -11 -3 -11 -32 0 10 -22 51 -26 24 -3 51 -11 59 -17 13 -11 13 -10
1 6 -8 9 -11 21 -7 24 4 4 11 1 16 -7 6 -10 10 -11 10 -3 0 7 6 10 13 8 24 -9
138 -11 143 -3 3 4 11 8 17 8 7 0 4 -6 -5 -14 -15 -11 -16 -18 -6 -47 6 -19
15 -42 19 -51 5 -10 9 -45 9 -79 0 -44 3 -60 13 -56 8 2 12 25 12 66 0 50 -4
65 -18 73 -14 7 -17 17 -12 41 4 18 11 36 15 41 5 5 40 10 77 10 38 1 74 5 81
10 7 4 12 2 12 -4 0 -7 8 -9 21 -5 19 6 21 4 16 -14 -3 -11 -2 -21 3 -21 4 0
10 -9 13 -20 5 -20 27 -28 27 -10 0 6 -5 10 -11 10 -5 0 -7 5 -4 11 5 7 13 5
24 -5 10 -9 23 -16 29 -16 7 0 12 -7 12 -15 0 -8 5 -15 10 -15 13 0 13 -41 0
-74 -9 -24 -15 -26 -65 -26 -30 0 -55 -4 -55 -10 0 -6 28 -10 65 -10 53 0 66
3 75 19 26 50 -6 130 -65 161 -16 8 -38 26 -50 38 -11 13 -32 24 -45 24 -14 0
-71 -1 -126 -2 -99 -3 -224 21 -224 42 0 4 -11 8 -25 8 -14 0 -25 -4 -25 -10
0 -6 -27 -10 -61 -10 -54 0 -65 4 -97 31 -63 55 -127 79 -212 78 -41 0 -86 -4
-100 -8z m-435 -581 c17 -18 16 -19 -8 -25 -53 -14 -91 16 -45 34 32 13 33 13
53 -9z"/>
<path d="M966 1751 c-3 -5 6 -12 20 -15 29 -8 39 -3 29 13 -8 13 -42 14 -49 2z"/>
<path d="M1890 1673 c0 -16 28 -43 45 -43 22 0 26 17 7 31 -15 13 -16 12 -3
-3 12 -16 11 -18 -2 -18 -9 0 -23 10 -31 22 -9 12 -16 17 -16 11z"/>
<path d="M850 1647 c0 -31 -10 -39 -29 -26 -9 7 -1 -2 17 -20 35 -34 58 -41
48 -14 -4 10 2 26 16 41 13 14 18 22 12 19 -6 -4 -20 0 -30 8 -27 20 -34 18
-34 -8z"/>
<path d="M1513 1663 l-31 -4 19 -54 c11 -33 19 -79 18 -117 l-1 -63 -17 38
c-18 39 -61 90 -69 82 -2 -2 5 -16 17 -31 11 -15 21 -31 21 -36 0 -6 29 -52
66 -104 54 -78 69 -93 87 -90 98 20 94 22 122 -37 14 -30 25 -59 25 -66 0 -8
5 -8 20 1 14 9 18 19 14 33 -9 28 -93 107 -106 99 -6 -4 -3 7 7 24 10 17 24
28 31 25 8 -3 18 6 24 22 16 42 5 55 -13 15 l-15 -35 4 55 3 55 -9 -49 c-11
-59 -43 -95 -91 -101 -31 -5 -37 -1 -71 45 -35 45 -38 55 -38 115 0 35 -5 85
-12 110 -7 24 -9 47 -5 51 4 4 43 9 86 12 99 6 121 -9 129 -87 2 -28 8 -48 13
-45 11 6 2 59 -18 107 l-16 37 -81 -2 c-45 0 -95 -3 -113 -5z"/>
<path d="M681 1616 c-22 -54 -35 -206 -24 -281 l10 -70 2 79 c0 43 8 120 17
172 17 103 15 149 -5 100z"/>
<path d="M1606 1583 c8 -46 8 -45 26 -38 23 9 11 75 -14 75 -16 0 -18 -5 -12
-37z"/>
<path d="M474 1545 c-4 -9 -3 -28 1 -43 6 -25 7 -48 4 -111 -2 -34 17 -49 42
-33 18 11 24 11 38 -2 25 -23 40 -20 47 9 4 16 0 34 -10 50 -12 19 -14 30 -6
44 12 24 2 81 -17 88 -8 3 -20 -3 -28 -13 -11 -15 -11 -23 0 -44 17 -32 20
-60 10 -83 -6 -15 -10 -16 -16 -5 -7 10 -9 9 -9 -4 0 -10 -7 -18 -15 -18 -8 0
-15 9 -15 20 0 11 5 20 11 20 6 0 8 8 4 20 -3 10 -1 28 4 39 9 16 7 23 -11 35
-20 14 -20 16 -4 16 15 0 16 3 6 15 -16 19 -29 19 -36 0z"/>
<path d="M1867 1553 c-13 -13 -7 -53 8 -53 10 0 15 10 15 30 0 29 -9 38 -23
23z"/>
<path d="M1807 1543 c-13 -13 -7 -53 8 -53 10 0 15 10 15 30 0 29 -9 38 -23
23z"/>
<path d="M840 1538 c0 -2 -9 -49 -19 -105 -10 -57 -15 -103 -10 -103 5 0 9 10
9 23 0 25 25 143 35 170 4 10 3 17 -4 17 -6 0 -11 -1 -11 -2z"/>
<path d="M1665 1532 c-9 -9 -6 -90 4 -96 5 -3 7 13 6 37 -1 24 -1 28 2 10 5
-39 33 -46 33 -9 0 13 3 31 6 39 3 10 -3 16 -20 19 -14 3 -28 3 -31 0z"/>
<path d="M1573 1520 c-19 -8 -23 -17 -23 -49 0 -38 2 -40 30 -39 29 1 30 3 30
50 0 51 -2 52 -37 38z m27 -46 c0 -21 -4 -33 -10 -29 -17 10 -11 65 7 65 2 0
3 -16 3 -36z"/>
<path d="M1862 1458 c-15 -15 -16 -38 -2 -38 6 0 10 8 10 17 0 9 3 14 6 10 10
-10 -7 -48 -18 -41 -7 5 -8 2 -3 -6 6 -10 11 -9 22 5 24 34 11 79 -15 53z"/>
<path d="M1802 1448 c-14 -14 -16 -38 -3 -38 5 0 12 8 14 18 2 9 3 4 1 -11 -2
-17 0 -26 6 -22 12 8 13 52 2 59 -5 3 -14 0 -20 -6z"/>
<path d="M1422 1403 c-19 -26 -27 -28 -109 -34 l-88 -6 102 -1 c95 -2 103 0
117 20 33 47 11 67 -22 21z"/>
<path d="M2000 1423 c0 -14 -86 -63 -111 -63 -10 0 -30 -11 -45 -25 -15 -14
-37 -25 -50 -25 -40 0 -34 -16 7 -18 28 -2 39 1 39 12 0 9 15 17 40 21 23 4
53 18 69 31 22 18 36 22 67 19 101 -13 178 -14 190 -4 24 20 83 -10 148 -75
49 -49 65 -72 79 -119 9 -32 17 -69 17 -82 0 -37 17 -39 29 -2 10 26 14 29 22
17 7 -11 8 -7 3 15 -10 47 -23 65 -45 65 -16 0 -18 5 -13 24 5 21 -5 36 -63
93 -45 45 -86 75 -121 90 -28 12 -52 18 -52 14 0 -12 -69 -33 -82 -25 -7 5
-28 7 -46 5 -24 -2 -41 4 -58 20 -13 12 -24 18 -24 12z"/>
<path d="M1086 1411 c-14 -22 7 -41 43 -40 28 0 32 2 16 8 -11 5 -23 7 -27 4
-5 -2 -8 5 -8 16 0 21 -14 28 -24 12z"/>
<path d="M1190 1348 c0 -18 50 -82 57 -74 3 3 -9 24 -26 48 -18 24 -31 35 -31
26z"/>
<path d="M1856 1262 c-4 -6 0 -24 8 -39 13 -23 15 -24 15 -8 -1 32 -14 61 -23
47z"/>
<path d="M1290 1246 c0 -7 20 -19 46 -26 52 -15 142 -71 203 -125 46 -42 111
-151 111 -187 0 -40 13 -41 32 -2 17 36 17 38 -3 71 -11 18 -31 36 -44 39 -16
4 -22 11 -18 21 11 28 -104 126 -213 180 -76 39 -114 48 -114 29z"/>
<path d="M980 1177 c0 -12 9 -28 20 -35 12 -7 25 -24 30 -38 6 -14 14 -22 20
-19 6 3 10 -5 10 -18 0 -14 -6 -27 -14 -30 -8 -3 -16 -18 -18 -34 -4 -33 -18
-35 -35 -3 l-11 22 -18 -28 c-10 -16 -24 -33 -31 -37 -7 -4 -13 -14 -13 -21 0
-8 -7 -16 -15 -20 -8 -3 -15 -11 -15 -19 0 -7 -25 -37 -56 -67 -31 -30 -91
-96 -135 -146 -61 -71 -79 -99 -79 -122 0 -43 -9 -62 -31 -62 -23 0 -24 10 -4
36 20 27 19 40 -3 21 -19 -18 -24 -41 -15 -67 4 -8 7 -19 7 -24 1 -5 7 -11 15
-14 10 -3 12 1 8 17 -4 18 -1 21 24 21 19 0 29 5 29 15 0 8 4 23 9 33 5 9 23
48 41 85 25 54 54 90 141 177 79 80 107 114 103 127 -5 15 -4 15 4 3 6 -8 8
-19 4 -25 -4 -6 4 1 17 15 13 14 20 19 15 11 -4 -8 11 0 34 18 60 48 74 135
29 177 -12 11 -23 27 -25 35 -5 18 -22 39 -33 39 -5 0 -9 -10 -9 -23z"/>
<path d="M2550 1184 c0 -10 4 -34 9 -51 6 -20 6 -35 0 -38 -5 -4 -9 -17 -9
-31 0 -30 -18 -31 -29 -2 -8 21 -8 21 -15 -5 -3 -15 -15 -36 -26 -47 -11 -11
-20 -28 -20 -38 0 -10 -21 -45 -46 -78 -92 -117 -184 -265 -184 -294 0 -5 13
-10 29 -10 28 0 28 1 26 48 -2 26 -1 41 2 35 2 -7 20 18 38 55 19 37 65 106
104 154 38 47 66 89 63 93 -4 4 -1 5 7 3 8 -2 19 6 25 17 6 11 22 31 35 44 20
20 23 30 19 82 -2 33 -10 65 -16 71 -9 9 -12 8 -12 -8z"/>
<path d="M1857 1183 c-4 -3 -7 -15 -7 -25 0 -25 -19 -23 -29 4 -7 19 -10 17
-30 -25 -13 -26 -27 -47 -32 -47 -12 0 -11 17 2 43 l11 22 -21 -21 c-22 -20
-22 -21 -4 -52 10 -18 21 -32 24 -32 13 0 109 110 109 124 0 17 -12 21 -23 9z"/>
<path d="M850 1175 c0 -2 16 -26 35 -55 19 -29 38 -63 41 -76 7 -29 15 -30 31
-5 15 23 -15 76 -52 93 -14 6 -24 17 -21 24 3 7 -4 14 -15 17 -10 3 -19 4 -19
2z"/>
<path d="M2406 993 c-28 -28 -72 -87 -99 -130 -53 -85 -157 -286 -157 -303 0
-21 18 0 40 47 41 87 186 326 209 343 17 12 63 80 59 87 -1 4 -25 -15 -52 -44z"/>
<path d="M1767 1013 c-4 -5 0 -19 8 -29 16 -22 20 -65 6 -80 -5 -5 -11 -22
-13 -38 -4 -39 -25 -44 -39 -9 -8 20 -13 24 -17 13 -2 -8 -9 -23 -13 -32 -7
-13 -4 -20 12 -28 17 -9 26 -7 54 14 19 14 33 34 33 44 -1 9 2 38 6 63 5 37 3
50 -12 69 -11 13 -21 19 -25 13z"/>
<path d="M1558 904 c-67 -104 -111 -185 -105 -190 3 -3 13 6 22 20 10 14 24
26 31 26 8 0 14 3 15 8 1 4 2 21 4 38 1 18 22 59 46 93 23 33 40 63 36 67 -3
3 -25 -25 -49 -62z"/>
<path d="M800 878 c-91 -92 -201 -234 -269 -346 -57 -94 -48 -104 10 -11 100
160 122 189 234 307 65 67 115 125 113 128 -3 2 -42 -33 -88 -78z"/>
<path d="M1587 869 c-22 -27 -40 -59 -42 -72 -4 -31 -16 -57 -26 -57 -5 0 -9
-5 -9 -10 0 -6 13 -1 30 11 23 17 100 152 100 175 0 14 -20 -4 -53 -47z"/>
<path d="M1666 802 c-9 -15 1 -32 19 -32 20 0 29 20 16 33 -8 8 -11 6 -12 -8
0 -20 -1 -20 -8 -1 -5 14 -10 16 -15 8z"/>
<path d="M1697 753 c-25 -24 -28 -25 -25 -8 5 31 -28 31 -36 0 -4 -15 -55 -85
-114 -155 -135 -163 -172 -213 -172 -234 0 -24 -28 -76 -42 -76 -28 0 6 -13
42 -16 38 -4 41 -3 35 17 -4 13 -2 25 5 29 9 6 9 13 1 28 -6 11 -11 29 -10 39
0 13 3 12 10 -7 10 -24 11 -24 28 21 28 73 98 167 210 282 57 59 102 107 100
107 -3 0 -17 -12 -32 -27z"/>
<path d="M1440 660 c0 -36 6 -37 30 -8 21 26 17 38 -11 38 -14 0 -19 -7 -19
-30z"/>
<path d="M1368 506 c-72 -110 -141 -235 -153 -276 -7 -22 -6 -23 9 -11 9 7 16
18 16 23 0 27 81 166 179 307 17 24 31 48 31 53 0 23 -21 -1 -82 -96z"/>
<path d="M2136 532 c-15 -14 -4 -61 19 -82 45 -43 111 -24 130 38 6 19 3 22
-23 22 -16 0 -50 6 -75 14 -25 7 -48 11 -51 8z"/>
<path d="M635 440 c7 -39 6 -40 -22 -40 -29 0 -85 12 -115 25 -28 11 -23 -47
6 -81 18 -21 32 -28 61 -28 56 0 85 38 85 110 0 32 -4 54 -11 54 -7 0 -8 -14
-4 -40z"/>
<path d="M1370 215 c0 -19 5 -35 10 -35 6 0 10 16 10 35 0 19 -4 35 -10 35 -5
0 -10 -16 -10 -35z"/>
<path d="M1190 159 c0 -43 56 -99 99 -99 35 0 85 41 96 78 6 20 3 22 -38 22
-24 0 -66 7 -93 15 -65 20 -64 20 -64 -16z"/>
</g>
</svg>
