<?xml version="1.0" standalone="no"?>
<!DOCTYPE svg PUBLIC "-//W3C//DTD SVG 20010904//EN"
 "http://www.w3.org/TR/2001/REC-SVG-20010904/DTD/svg10.dtd">
<svg version="1.0" xmlns="http://www.w3.org/2000/svg"
 width="218.000000pt" height="231.000000pt" viewBox="0 0 218.000000 231.000000"
 preserveAspectRatio="xMidYMid meet">
<metadata>
Created by potrace 1.10, written by Peter Selinger 2001-2011
</metadata>
<g transform="translate(0.000000,231.000000) scale(0.100000,-0.100000)"
fill="#000000" stroke="none">
<path d="M443 2113 c-8 -3 -13 -24 -13 -52 l0 -48 -65 1 c-103 2 -99 11 -103
-284 l-4 -250 831 0 831 0 -3 250 c-2 217 -4 251 -19 266 -19 19 -60 26 -102
18 -28 -6 -29 -7 -11 -20 10 -8 24 -14 29 -14 6 0 4 5 -4 10 -13 8 -13 10 2
10 9 0 20 -5 23 -10 3 -6 17 -7 31 -4 18 5 24 2 24 -10 0 -9 -5 -16 -10 -16
-7 0 -7 -6 -1 -19 10 -18 17 -408 8 -418 -3 -2 -334 -5 -737 -5 -402 0 -758
-3 -790 -7 -32 -4 -57 -4 -54 1 3 4 -2 8 -10 8 -14 0 -16 23 -16 178 0 209 7
285 26 278 7 -3 14 -1 16 3 4 12 108 25 108 13 0 -5 -9 -17 -20 -27 -11 -10
-20 -28 -20 -41 0 -45 92 -87 106 -49 4 11 13 14 28 9 21 -6 21 -6 1 11 -11 9
-14 14 -7 10 18 -9 15 30 -3 45 -18 15 -19 27 -2 33 7 2 5 3 -3 3 -11 -1 -14
-11 -12 -34 4 -41 -12 -62 -48 -62 -19 0 -30 7 -38 25 -10 21 -8 28 12 50 15
16 22 34 20 48 -2 13 -1 16 2 7 4 -8 11 -18 16 -21 4 -3 -1 -15 -12 -27 -27
-29 -26 -54 2 -50 28 4 35 35 28 126 -5 64 -12 76 -37 65z"/>
<path d="M647 2114 c-4 -4 -7 -29 -7 -56 l0 -50 -64 7 c-41 4 -67 2 -71 -5 -3
-6 4 -11 17 -11 35 -3 51 -6 76 -14 23 -8 31 -25 11 -25 -15 0 -3 -62 15 -75
7 -5 11 -14 9 -20 -1 -5 13 -10 32 -11 18 0 32 3 30 6 -3 4 4 15 15 25 11 10
20 26 20 36 0 24 -10 49 -21 49 -4 0 -6 -7 -3 -15 4 -8 3 -26 0 -40 -5 -19
-13 -25 -35 -25 -37 0 -55 22 -48 59 3 15 1 33 -6 40 -8 8 -8 11 1 11 6 0 14
-12 18 -27 10 -49 13 -53 33 -53 23 0 28 28 21 125 -4 52 -9 71 -20 73 -9 1
-19 0 -23 -4z"/>
<path d="M861 2106 c-8 -9 -11 -45 -9 -98 3 -77 4 -83 26 -86 24 -4 23 -9 25
111 1 82 -14 107 -42 73z m24 -106 c1 -11 -4 -20 -12 -20 -17 0 -17 30 0 31
10 0 10 2 0 6 -7 2 -13 10 -13 16 0 20 24 -11 25 -33z"/>
<path d="M1071 2107 c-10 -12 -14 -117 -4 -117 2 0 8 10 13 23 8 20 9 21 10 2
1 -11 3 -28 5 -37 2 -10 -2 -21 -7 -25 -6 -3 -8 -1 -4 5 12 19 -13 23 -39 6
-30 -20 -32 -43 -6 -71 11 -12 17 -24 13 -27 -3 -4 2 -4 12 0 12 5 17 4 13 -3
-7 -12 29 -10 40 2 5 4 2 5 -4 1 -7 -4 -13 -5 -13 -2 0 3 15 12 33 21 27 13
34 22 34 46 0 19 -3 25 -9 17 -5 -10 -8 -8 -8 5 0 10 -5 15 -10 12 -6 -4 -7
-11 -4 -17 9 -15 -16 -56 -38 -61 -21 -6 -58 24 -58 47 0 7 7 19 15 26 13 11
15 10 10 -1 -7 -21 10 -41 31 -37 11 2 20 10 20 18 1 8 3 20 4 25 1 6 1 37 0
70 -2 75 -22 104 -49 72z"/>
<path d="M1283 2104 c-3 -9 -6 -32 -7 -53 l-1 -36 -55 -1 c-71 0 -77 -2 -83
-17 -3 -7 3 -13 13 -13 10 0 16 4 14 8 -3 4 0 8 5 8 6 0 11 -5 11 -11 0 -8 4
-8 13 -2 17 13 43 10 39 -5 -6 -29 21 -102 39 -107 10 -4 19 -11 19 -16 0 -5
11 -2 25 7 13 8 30 12 36 8 9 -5 10 -2 6 9 -4 11 -1 17 8 17 16 0 11 21 -12
55 -13 19 -14 18 -7 -8 8 -35 -10 -57 -47 -57 -22 0 -30 6 -35 25 -3 14 -4 35
-1 48 6 21 6 21 -9 3 -13 -19 -14 -19 -12 8 2 23 6 27 25 23 16 -3 23 1 23 11
0 12 3 12 16 1 15 -12 14 -14 -5 -23 -24 -10 -29 -61 -7 -69 27 -10 36 17 36
104 0 70 -3 88 -16 93 -22 8 -24 8 -31 -10z"/>
<path d="M1497 2113 c-4 -3 -6 -36 -6 -72 1 -36 3 -58 6 -48 7 26 21 20 19 -8
0 -16 -6 -23 -13 -20 -8 3 -13 -5 -13 -20 0 -20 5 -25 25 -25 25 0 25 0 25 94
0 76 -3 95 -16 100 -19 7 -19 7 -27 -1z"/>
<path d="M1712 2112 c-9 -6 -12 -33 -10 -98 3 -83 5 -89 25 -92 21 -3 22 1 25
88 3 101 -5 123 -40 102z m17 -130 c-5 -2 -7 -8 -4 -12 3 -5 2 -11 -3 -14 -4
-3 -9 14 -10 37 -2 41 -2 41 12 17 8 -14 10 -27 5 -28z"/>
<path d="M717 2013 c-15 -14 -5 -18 46 -18 28 1 58 -3 65 -8 8 -7 12 -5 12 6
0 8 -10 17 -22 21 -31 8 -93 8 -101 -1z"/>
<path d="M940 2010 c-14 -4 -19 -8 -12 -9 7 -1 10 -6 6 -13 -5 -7 -3 -8 7 -3
21 14 93 15 102 2 5 -8 7 -4 5 8 -3 16 -12 20 -43 22 -22 1 -51 -2 -65 -7z"/>
<path d="M1349 1998 c-11 -21 -11 -22 4 -10 18 15 101 7 92 -9 -4 -5 1 -6 10
-3 13 5 14 2 4 -22 -15 -40 -22 -83 -10 -65 7 11 11 10 21 -6 9 -13 21 -19 39
-16 25 3 25 3 4 -6 -30 -14 -29 -19 2 -13 14 2 25 8 25 14 0 5 9 18 20 30 23
25 26 63 7 71 -10 4 -12 -3 -9 -23 8 -54 -71 -76 -84 -24 -3 13 -3 31 0 40 3
9 3 21 -1 27 -4 7 -8 16 -8 21 0 5 -23 10 -52 13 -46 3 -53 1 -64 -19z"/>
<path d="M1585 2012 c-11 -4 -21 -13 -23 -20 -1 -8 2 -11 7 -8 5 4 13 -3 16
-15 4 -11 9 -18 12 -16 2 3 -1 15 -7 28 -12 21 -11 22 28 15 43 -6 75 1 66 15
-6 10 -69 10 -99 1z"/>
<path d="M801 1973 c-1 -6 3 -14 8 -18 10 -6 7 -37 -5 -57 -4 -7 -3 -8 4 -4 7
4 12 2 12 -3 0 -6 6 -11 14 -11 8 0 18 -5 22 -12 5 -8 2 -9 -9 -5 -10 3 -17 2
-17 -3 0 -6 18 -10 39 -10 22 0 48 -3 58 -6 15 -6 16 -4 6 7 -15 15 -17 33 -4
25 5 -3 9 0 8 7 0 6 1 23 2 37 1 21 3 22 12 10 9 -12 10 -12 5 3 -3 10 -6 23
-6 29 0 7 -5 6 -14 -2 -8 -6 -12 -18 -10 -25 8 -20 -32 -56 -53 -48 -35 12
-45 26 -39 56 5 23 3 28 -8 24 -8 -3 -17 -1 -20 6 -3 9 -5 9 -5 0z"/>
<path d="M1664 1945 c-15 -23 -15 -27 -2 -43 26 -30 30 -42 14 -36 -9 3 -16 1
-16 -5 0 -6 14 -11 31 -11 42 0 69 -16 70 -43 1 -16 3 -17 6 -5 2 9 -4 29 -13
45 -10 15 -14 25 -9 21 9 -8 55 48 55 68 0 6 -7 17 -15 24 -13 11 -15 8 -15
-16 0 -41 -13 -57 -49 -59 -16 -1 -29 1 -29 4 1 3 -2 14 -7 24 -4 9 -5 26 -2
37 7 27 1 25 -19 -5z"/>
<path d="M466 1825 c-9 -14 -21 -23 -26 -20 -5 3 -12 1 -15 -5 -4 -6 -24 -18
-44 -26 -33 -13 -38 -19 -34 -42 3 -23 2 -24 -6 -7 -16 33 -12 0 4 -38 8 -20
15 -46 15 -57 0 -12 12 -32 27 -44 22 -19 33 -22 51 -15 34 13 42 11 42 -8 0
-14 2 -15 9 -4 6 9 28 13 72 12 65 -2 157 -2 399 0 74 0 160 -3 191 -8 48 -8
56 -7 51 5 -4 11 0 13 19 6 13 -4 32 -7 41 -6 12 0 15 -4 10 -16 -5 -15 -4
-15 12 1 21 20 -6 18 257 20 231 2 249 6 249 52 0 12 8 33 18 46 10 13 18 40
18 59 -1 32 -4 35 -38 41 -20 3 -43 2 -50 -2 -18 -12 -78 -11 -78 0 0 5 -13 7
-30 5 -26 -4 -29 -3 -23 13 6 16 5 16 -9 3 -8 -8 -25 -22 -37 -30 -11 -8 -21
-20 -21 -28 0 -8 -11 -2 -27 13 -16 14 -38 28 -51 32 -31 7 -106 -3 -110 -16
-4 -11 -41 5 -54 24 -5 6 -11 5 -17 -4 -5 -8 -16 -11 -31 -6 -15 5 -20 4 -16
-4 4 -6 0 -11 -8 -11 -9 0 -16 4 -16 8 0 9 -117 8 -126 -1 -3 -3 -16 -2 -29 3
-15 6 -29 4 -42 -5 -15 -11 -22 -11 -37 1 -11 7 -20 24 -21 36 -1 12 -8 24
-16 26 -8 2 -10 0 -4 -5 6 -4 10 -18 11 -30 0 -13 -1 -21 -4 -18 -2 2 -20 -2
-38 -10 -30 -12 -35 -12 -59 6 -14 11 -25 17 -25 12 0 -4 -21 -9 -47 -10 -58
-1 -204 -2 -212 -1 -3 1 -14 -2 -23 -6 -10 -4 -26 -1 -41 8 -22 15 -25 15 -42
-4 -10 -11 -25 -20 -33 -20 -11 0 -13 -8 -8 -37 3 -21 6 -47 6 -58 1 -31 16 2
25 53 6 35 10 42 30 42 21 0 25 -6 30 -47 10 -72 11 -73 24 -10 10 45 16 57
32 57 23 0 24 4 -3 -86 -18 -63 -24 -74 -43 -74 -20 0 -24 7 -32 58 l-9 57
-13 -57 c-11 -49 -16 -58 -34 -58 -19 0 -25 10 -41 68 -10 37 -20 73 -23 80
-3 7 4 12 20 12 24 0 44 15 46 35 1 6 4 10 9 11 20 2 42 18 42 29 0 7 6 16 13
18 7 4 8 6 1 6 -7 1 -19 -10 -28 -24z m244 -90 c0 -10 -11 -15 -35 -15 -24 0
-35 -5 -35 -15 0 -11 11 -15 36 -15 28 0 35 -3 32 -17 -3 -14 -12 -17 -36 -15
-27 3 -32 0 -32 -17 0 -17 6 -21 35 -21 24 0 35 -5 35 -15 0 -12 -13 -15 -55
-15 l-55 0 0 80 0 80 55 0 c42 0 55 -3 55 -15z m155 -10 c30 -29 33 -73 6
-106 -14 -18 -31 -23 -80 -27 l-61 -4 0 81 0 81 55 0 c46 0 60 -4 80 -25z
m128 -27 l27 -52 0 52 c0 45 3 52 20 52 18 0 20 -7 20 -80 0 -76 -1 -80 -23
-80 -17 0 -30 14 -54 58 l-33 57 0 -57 c0 -51 -2 -58 -20 -58 -18 0 -20 7 -20
80 l0 80 28 0 c24 0 32 -8 55 -52z m207 37 c0 -10 -11 -15 -35 -15 -24 0 -35
-5 -35 -15 0 -10 10 -15 30 -15 23 0 30 -4 30 -20 0 -16 -5 -19 -30 -13 -26 5
-30 3 -30 -16 0 -17 6 -21 35 -21 24 0 35 -5 35 -15 0 -12 -13 -15 -55 -15
l-55 0 0 80 0 80 55 0 c42 0 55 -3 55 -15z m128 -2 c-2 -14 -11 -17 -36 -15
-42 5 -41 -14 2 -32 71 -30 50 -96 -31 -96 -37 0 -43 3 -43 20 0 18 4 20 34
15 49 -10 54 11 9 32 -70 33 -51 93 30 93 31 0 38 -3 35 -17z m167 -8 c33 -33
32 -70 -4 -106 -25 -24 -37 -29 -80 -29 l-51 0 0 80 0 80 55 0 c46 0 60 -4 80
-25z m165 -57 l27 -78 -23 0 c-14 0 -25 8 -29 20 -4 13 -15 20 -32 20 -16 0
-27 -7 -30 -20 -3 -12 -14 -20 -25 -20 -15 0 -19 5 -15 18 39 140 41 143 71
140 26 -3 31 -10 56 -80z m65 52 c4 -16 10 -30 15 -30 4 0 13 14 19 30 8 23
16 30 36 30 l26 0 -31 -44 c-20 -29 -30 -57 -30 -80 0 -29 -4 -36 -20 -36 -16
0 -20 7 -20 35 0 21 -11 52 -25 75 -31 49 -31 50 -1 50 19 0 26 -7 31 -30z"/>
<path d="M770 1670 c0 -46 2 -50 24 -50 29 0 56 24 56 50 0 26 -27 50 -56 50
-22 0 -24 -4 -24 -50z"/>
<path d="M1400 1670 c0 -56 15 -64 59 -34 18 13 21 22 16 43 -8 30 -21 41 -52
41 -21 0 -23 -5 -23 -50z"/>
<path d="M1592 1692 c-10 -29 -9 -32 9 -32 20 0 23 12 10 44 -7 18 -9 16 -19
-12z"/>
<path d="M1920 922 c0 -509 -1 -551 -17 -571 l-18 -22 -793 3 c-435 2 -792 0
-792 -3 0 -4 7 -10 16 -13 13 -5 1427 -7 1544 -2 31 1 55 22 69 59 15 38 15
1083 1 1092 -7 4 -10 -180 -10 -543z"/>
<path d="M246 1438 c-10 -39 -7 -1012 4 -1028 6 -10 10 170 10 518 0 292 -2
532 -4 532 -2 0 -6 -10 -10 -22z"/>
<path d="M942 1280 c-35 -9 -67 -22 -72 -26 -5 -5 -1 -33 8 -61 13 -40 21 -51
32 -47 59 25 91 33 135 34 89 0 127 -50 75 -101 -26 -26 -35 -29 -94 -29 l-66
0 0 -55 0 -55 53 0 c102 -1 160 -47 143 -115 -14 -55 -129 -73 -228 -35 -28
11 -52 19 -53 17 0 -1 -8 -27 -18 -57 -13 -42 -14 -56 -4 -62 33 -22 102 -33
202 -33 103 0 113 2 163 29 136 76 137 245 3 293 l-49 17 37 17 c102 45 119
168 34 238 -64 53 -183 65 -301 31z m211 -22 c23 -6 45 -11 49 -10 12 3 30
-37 22 -49 -4 -8 -1 -8 13 -1 20 11 21 9 23 -48 1 -40 -4 -69 -11 -65 -3 3
-15 -5 -25 -17 -19 -21 -19 -21 6 -9 24 12 24 11 5 -4 -18 -14 -21 -14 -33 2
-13 16 -13 16 -7 -6 6 -20 4 -23 -12 -19 -16 4 -19 0 -17 -25 2 -28 20 -50 34
-42 4 2 7 -2 7 -10 0 -8 -5 -11 -10 -8 -6 3 -7 1 -3 -5 4 -7 14 -12 22 -12 8
0 13 4 10 9 -4 5 2 8 11 7 9 -2 19 -9 21 -16 3 -7 0 -10 -7 -6 -19 12 -12 -2
15 -29 14 -14 23 -32 20 -40 -3 -8 -1 -15 4 -15 6 0 5 -11 -2 -25 -6 -14 -16
-25 -22 -25 -6 0 -4 -5 4 -10 13 -8 12 -10 -4 -10 -12 0 -16 -5 -13 -15 7 -18
-9 -30 -16 -13 -4 8 -8 4 -13 -10 -5 -18 -9 -20 -15 -10 -7 10 -9 8 -9 -6 0
-15 -5 -17 -27 -12 -20 5 -24 4 -14 -3 11 -7 6 -11 -20 -15 -76 -11 -119 -14
-114 -6 3 5 -5 8 -17 8 -53 -3 -88 3 -86 14 2 6 -6 13 -17 15 -17 3 -18 2 -5
-7 12 -9 12 -11 1 -8 -21 6 -26 28 -7 28 10 0 13 6 10 15 -4 10 0 15 15 15 12
0 21 -4 21 -9 0 -13 92 -20 114 -9 15 8 21 8 24 -1 2 -6 10 -11 18 -11 9 0 12
5 9 10 -3 6 1 10 10 10 18 0 74 54 76 73 1 7 0 17 -1 22 -1 6 -3 15 -4 20 -5
24 -38 75 -45 70 -5 -2 -14 2 -21 10 -12 14 -69 30 -102 27 -12 0 -18 6 -18
19 0 10 6 19 13 20 12 1 19 2 85 14 19 4 32 12 32 21 0 8 5 12 10 9 6 -3 10 1
10 10 0 10 5 13 11 9 8 -5 10 3 7 24 -4 27 -2 30 10 19 12 -9 11 -5 -2 21 -9
18 -14 38 -9 45 4 8 1 7 -10 -2 -13 -11 -17 -11 -17 -1 0 8 -3 11 -6 7 -4 -3
-13 1 -22 9 -18 19 -151 17 -167 -2 -7 -8 -14 -6 -27 7 -15 16 -15 18 0 32 34
31 168 45 235 25z"/>
<path d="M0 111 c0 -5 6 -11 12 -13 10 -4 10 -10 1 -31 -9 -19 -9 -28 -1 -33
6 -4 8 -3 4 4 -3 6 1 15 10 20 22 13 64 3 64 -15 0 -13 -3 -13 -15 -3 -12 10
-15 10 -15 0 0 -8 -3 -10 -7 -7 -8 8 -33 -12 -33 -26 0 -6 7 -2 15 9 9 12 14
14 15 6 0 -7 4 -11 9 -7 6 3 28 1 50 -4 23 -5 39 -5 36 -1 -3 5 1 11 7 13 13
5 -16 11 -39 8 -7 -1 -13 5 -13 12 0 10 12 15 38 16 60 1 71 4 69 14 -1 5 4
12 12 15 10 3 13 -1 9 -15 -4 -16 0 -19 29 -16 24 1 32 -1 26 -10 -5 -8 -2 -8
9 1 24 20 87 21 99 3 7 -12 8 -9 3 12 -3 15 -5 27 -3 28 2 0 287 3 633 5 502
3 627 2 620 -8 -5 -7 -9 -20 -9 -28 1 -20 24 -59 25 -41 0 8 6 11 18 6 34 -13
51 -13 62 0 12 14 50 9 62 -9 5 -8 8 -7 8 2 0 6 5 12 11 12 5 0 7 -6 4 -12 -4
-7 0 -6 7 4 10 12 18 14 32 6 9 -5 20 -7 23 -4 4 3 2 6 -4 6 -6 0 -10 8 -8 18
1 9 0 13 -2 7 -2 -6 -35 -9 -76 -8 -39 1 -80 2 -89 3 -10 0 -18 7 -18 16 0 14
16 15 120 12 100 -2 120 -1 124 12 3 12 4 12 5 -2 1 -12 10 -16 37 -15 30 2
38 -2 45 -21 5 -13 5 -22 -1 -22 -6 0 -10 5 -10 11 0 7 -14 10 -35 7 -19 -2
-35 -1 -35 3 0 9 -27 6 -36 -4 -9 -9 16 -38 27 -31 5 3 7 10 4 15 -3 5 1 6 10
3 13 -5 13 -9 3 -23 -10 -13 -10 -14 1 -4 7 6 19 9 26 7 7 -3 16 -1 19 5 4 6
13 8 20 5 8 -3 17 -1 20 5 4 6 13 8 21 4 8 -3 15 0 15 6 0 6 -9 11 -20 11 -11
0 -20 7 -20 15 0 8 7 15 16 15 8 0 13 -3 11 -7 -3 -5 15 -6 39 -4 27 2 44 -1
44 -8 0 -6 -13 -11 -30 -11 -39 0 -39 -16 0 -22 32 -5 45 10 41 50 -2 14 3 22
13 22 9 0 16 5 16 10 0 7 -370 10 -1090 10 -654 0 -1090 -4 -1090 -9z m1680
-42 c0 -6 -7 -17 -15 -25 -13 -14 -15 -13 -15 10 0 16 6 26 15 26 8 0 15 -5
15 -11z"/>
<path d="M183 25 c0 -19 3 -23 10 -16 13 13 31 15 23 3 -3 -5 1 -9 9 -9 8 0
15 4 15 9 0 4 5 8 11 8 5 0 8 -3 6 -7 -3 -5 10 -8 29 -8 19 0 34 3 34 8 0 4 5
7 11 7 5 0 8 -3 5 -8 -2 -4 11 -8 29 -8 31 0 42 12 23 26 -4 3 -49 5 -100 4
-54 -1 -96 2 -99 8 -4 6 -6 -2 -6 -17z"/>
</g>
</svg>
