<?xml version="1.0" standalone="no"?>
<!DOCTYPE svg PUBLIC "-//W3C//DTD SVG 20010904//EN"
 "http://www.w3.org/TR/2001/REC-SVG-20010904/DTD/svg10.dtd">
<svg version="1.0" xmlns="http://www.w3.org/2000/svg"
 width="300.000000pt" height="253.000000pt" viewBox="0 0 300.000000 253.000000"
 preserveAspectRatio="xMidYMid meet">

<g transform="translate(0.000000,253.000000) scale(0.100000,-0.100000)"
fill="#000000" stroke="none">
<path d="M765 2396 c-17 -7 -44 -32 -60 -56 -59 -85 -31 -206 56 -250 130 -67
274 52 238 196 -11 44 -58 100 -96 115 -34 13 -103 11 -138 -5z m144 -29 c37
-18 61 -58 67 -112 7 -68 -17 -112 -79 -144 -43 -21 -51 -22 -92 -11 -168 47
-123 306 50 282 17 -2 41 -9 54 -15z"/>
<path d="M700 1558 l0 -448 140 0 140 0 0 448 0 447 -140 0 -140 0 0 -447z
m173 403 l67 -1 -2 -402 -3 -403 -95 0 -95 0 -3 399 c-1 270 1 402 8 406 6 4
21 5 33 4 12 -1 52 -3 90 -3z"/>
<path d="M1355 1984 c-115 -42 -210 -135 -257 -251 -34 -86 -39 -218 -10 -305
69 -210 243 -330 456 -315 63 4 93 12 150 41 62 30 166 116 166 136 0 7 -44
44 -127 107 -24 18 -43 29 -43 23 0 -5 -14 -25 -30 -44 -88 -99 -256 -80 -324
37 -15 24 -26 49 -26 55 0 9 76 12 289 12 l290 0 7 46 c28 186 -97 389 -279
452 -73 26 -199 29 -262 6z m276 -56 c136 -61 228 -204 229 -355 0 -36 -3 -43
-22 -48 -13 -3 -134 -6 -270 -7 -238 -3 -248 -4 -269 -25 -67 -66 81 -223 210
-223 43 0 111 27 153 60 20 17 41 30 45 30 17 0 93 -62 93 -76 0 -21 -98 -89
-163 -113 -64 -23 -168 -28 -226 -10 -119 36 -221 122 -269 226 -24 52 -26 70
-27 178 0 104 3 127 23 169 35 78 102 148 174 184 115 59 205 61 319 10z"/>
<path d="M1450 1830 c-49 -9 -71 -23 -113 -70 -42 -46 -47 -80 -15 -110 20
-18 35 -20 165 -20 139 0 145 1 168 25 31 30 31 43 2 86 -46 68 -128 104 -207
89z m110 -52 c40 -20 90 -76 90 -99 0 -5 -72 -9 -160 -9 -184 0 -188 2 -116
74 60 61 114 70 186 34z"/>
<path d="M700 786 c0 -89 3 -107 20 -129 26 -32 79 -44 121 -27 51 21 59 43
59 157 0 96 -1 103 -20 103 -18 0 -20 -7 -20 -84 0 -47 -4 -96 -10 -110 -12
-33 -52 -43 -85 -22 -24 16 -25 21 -25 116 0 93 -1 100 -20 100 -19 0 -20 -7
-20 -104z"/>
<path d="M960 760 l0 -130 26 0 26 0 -4 90 c-4 92 0 108 20 66 6 -14 30 -54
53 -90 32 -51 48 -66 66 -66 23 0 23 0 23 130 0 130 0 130 -23 130 -23 0 -24
-2 -19 -78 7 -125 4 -126 -63 -19 -47 77 -64 97 -82 97 -23 0 -23 -1 -23 -130z"/>
<path d="M1240 765 c0 -69 -1 -128 -2 -132 -2 -3 7 -7 20 -8 22 -2 22 0 22
132 0 126 -1 133 -20 133 -19 0 -20 -7 -20 -125z"/>
<path d="M1320 883 c0 -4 19 -63 42 -130 38 -115 43 -123 67 -123 24 0 29 8
64 113 21 61 41 120 44 130 4 13 -1 17 -21 17 -14 0 -26 -5 -26 -12 0 -6 -12
-50 -27 -97 -26 -84 -43 -120 -43 -90 0 8 -13 55 -29 104 -23 72 -33 91 -50
93 -12 2 -21 0 -21 -5z"/>
<path d="M1580 761 l0 -129 75 -4 c69 -3 75 -2 75 17 0 18 -6 20 -55 17 l-55
-4 0 41 0 41 45 0 c38 0 45 3 45 20 0 17 -7 20 -45 20 -45 0 -45 0 -45 36 l0
36 55 -4 c51 -3 55 -2 55 20 0 21 -4 22 -75 22 l-75 0 0 -129z"/>
<path d="M1780 760 l0 -130 25 0 c23 0 25 3 25 50 0 43 3 50 20 50 14 0 27
-15 44 -49 18 -35 32 -50 51 -53 14 -3 25 -3 25 0 0 3 -13 29 -29 57 -27 48
-28 52 -11 62 39 25 29 111 -16 132 -14 6 -49 11 -79 11 l-55 0 0 -130z m111
80 c21 -12 25 -50 7 -68 -7 -7 -25 -12 -40 -12 -27 0 -28 2 -28 45 0 39 3 45
21 45 11 0 29 -5 40 -10z"/>
<path d="M2050 883 c-24 -10 -39 -36 -40 -69 0 -35 21 -58 68 -75 42 -14 58
-42 36 -63 -19 -20 -31 -20 -66 -2 -26 14 -29 13 -38 -5 -10 -17 -6 -22 27
-35 50 -21 102 -9 122 28 23 41 6 75 -52 106 -56 29 -67 47 -43 70 13 14 21
14 48 4 34 -12 48 -9 48 13 0 28 -66 45 -110 28z"/>
<path d="M2220 757 c0 -126 1 -133 20 -133 19 0 20 7 20 133 0 126 -1 133 -20
133 -19 0 -20 -7 -20 -133z"/>
<path d="M2300 867 c0 -20 4 -22 40 -19 l40 4 0 -115 c0 -113 0 -114 23 -110
21 4 22 8 22 111 l0 107 40 1 c33 0 41 4 43 22 3 21 1 22 -102 22 -104 0 -106
-1 -106 -23z"/>
<path d="M2530 883 c0 -3 18 -39 40 -79 33 -59 40 -83 40 -126 0 -47 3 -54 20
-54 17 0 20 7 20 54 0 43 7 67 40 126 22 40 40 76 40 79 0 4 -11 7 -23 7 -19
0 -28 -11 -47 -55 -13 -30 -26 -55 -30 -55 -3 0 -18 25 -33 55 -19 39 -32 55
-47 55 -11 0 -20 -3 -20 -7z"/>
<path d="M690 453 l0 -58 1022 2 1023 3 3 55 3 55 -1026 0 -1025 0 0 -57z
m2016 11 c4 -14 2 -30 -3 -35 -5 -5 -395 -8 -993 -7 -941 3 -985 4 -988 21
-10 50 -63 47 992 47 l986 0 6 -26z"/>
<path d="M710 155 c0 -69 3 -85 15 -85 10 0 15 11 15 35 0 19 5 35 10 35 6 0
20 -16 31 -35 12 -19 27 -35 35 -35 19 0 18 7 -8 42 -19 28 -20 31 -5 40 24
13 22 65 -2 78 -11 5 -36 10 -55 10 l-36 0 0 -85z m85 45 c9 -15 -14 -40 -36
-40 -14 0 -19 7 -19 25 0 20 5 25 24 25 14 0 28 -5 31 -10z"/>
<path d="M872 217 c-67 -71 26 -192 96 -127 30 28 31 101 2 130 -27 27 -71 26
-98 -3z m70 -9 c34 -27 23 -108 -15 -108 -13 0 -28 5 -35 12 -17 17 -15 74 4
92 19 19 25 20 46 4z"/>
<path d="M1030 155 l0 -85 33 0 c68 0 106 42 72 80 -11 12 -13 20 -6 25 18 10
12 43 -8 55 -11 5 -36 10 -55 10 l-36 0 0 -85z m69 56 c19 -12 6 -41 -19 -41
-15 0 -20 7 -20 25 0 26 14 31 39 16z m16 -86 c0 -14 -8 -21 -27 -23 -24 -3
-28 0 -28 23 0 23 4 26 28 23 19 -2 27 -9 27 -23z"/>
<path d="M1195 215 c-34 -33 -34 -87 0 -120 42 -43 96 -29 115 29 29 88 -53
153 -115 91z m85 -30 c14 -36 -2 -79 -30 -83 -47 -7 -70 73 -29 102 26 18 48
11 59 -19z"/>
<path d="M1330 225 c0 -9 9 -15 25 -15 24 0 25 -2 25 -70 0 -56 3 -70 15 -70
12 0 15 14 15 70 0 68 1 70 25 70 16 0 25 6 25 15 0 12 -14 15 -65 15 -51 0
-65 -3 -65 -15z"/>
<path d="M1480 155 c0 -69 3 -85 15 -85 12 0 15 16 15 85 0 69 -3 85 -15 85
-12 0 -15 -16 -15 -85z"/>
<path d="M1571 219 c-33 -31 -27 -104 11 -132 22 -17 33 -19 55 -11 39 14 42
35 4 28 -19 -4 -37 -2 -46 6 -20 16 -19 74 1 94 18 19 20 19 44 6 23 -12 40 7
19 21 -24 15 -64 10 -88 -12z"/>
<path d="M1704 215 c-20 -30 -8 -50 44 -72 45 -19 36 -38 -17 -36 -46 2 -54
-12 -17 -28 48 -22 106 14 90 56 -4 9 -24 25 -47 36 -35 19 -38 22 -24 36 11
12 19 13 35 4 24 -13 44 6 21 20 -28 17 -68 10 -85 -16z"/>
<path d="M1901 226 c-8 -9 -11 -26 -7 -40 4 -15 0 -28 -9 -36 -37 -30 3 -88
52 -76 39 9 45 9 66 1 12 -5 17 -2 17 9 0 9 -5 16 -11 16 -11 0 -9 16 6 53 5
13 3 16 -9 11 -8 -3 -18 -15 -22 -26 l-6 -20 -21 20 c-19 19 -19 21 -3 37 25
25 17 59 -15 63 -14 2 -31 -4 -38 -12z m47 -23 c-5 -25 -28 -28 -28 -4 0 12 6
21 16 21 9 0 14 -7 12 -17z m-11 -83 c14 -21 3 -33 -21 -24 -19 7 -22 44 -3
44 7 0 18 -9 24 -20z"/>
<path d="M2106 162 c-30 -90 -30 -92 -12 -92 8 0 17 11 20 25 5 19 13 25 35
25 22 0 30 -6 35 -25 4 -14 14 -25 22 -25 9 0 14 6 11 12 -2 7 -15 46 -28 86
-31 98 -49 97 -83 -6z m54 24 c0 -8 3 -21 6 -30 4 -12 0 -16 -15 -16 -23 0
-24 3 -15 38 7 24 24 30 24 8z"/>
<path d="M2240 155 c0 -69 3 -85 15 -85 12 0 15 16 15 85 0 69 -3 85 -15 85
-12 0 -15 -16 -15 -85z"/>
<path d="M2380 220 c-11 -11 -22 -31 -26 -45 -15 -61 48 -121 102 -96 34 15
22 31 -19 24 -28 -4 -35 -1 -45 22 -24 51 14 109 57 86 23 -13 35 -3 20 16
-17 19 -66 16 -89 -7z"/>
<path d="M2510 155 l0 -85 50 0 c38 0 50 4 50 15 0 10 -11 15 -35 15 l-35 0 0
70 c0 56 -3 70 -15 70 -12 0 -15 -16 -15 -85z"/>
<path d="M2630 175 c0 -52 4 -69 20 -85 20 -20 55 -26 77 -12 32 20 48 162 18
162 -12 0 -15 -13 -15 -57 0 -69 -9 -86 -41 -81 -22 3 -24 8 -27 71 -2 51 -6
67 -17 67 -12 0 -15 -15 -15 -65z"/>
<path d="M2800 165 c0 -41 0 -78 0 -82 -1 -14 64 -14 90 0 31 16 37 43 15 67
-11 12 -13 20 -6 25 18 10 12 43 -8 55 -11 5 -36 10 -55 10 l-36 0 0 -75z m69
46 c21 -13 5 -41 -24 -41 -18 0 -25 5 -25 18 0 31 21 41 49 23z m16 -86 c0
-15 -8 -21 -33 -23 -32 -3 -34 -1 -23 46 1 2 13 2 29 0 19 -2 27 -9 27 -23z"/>
</g>
</svg>
