<svg xmlns="http://www.w3.org/2000/svg" xmlns:xlink="http://www.w3.org/1999/xlink" width="300" zoomAndPan="magnify" viewBox="0 0 224.87999 189.750001" height="253" preserveAspectRatio="xMidYMid meet" version="1.0"><defs><clipPath id="4faab6cb87"><path d="M 0.0898438 0 L 224.671875 0 L 224.671875 189.5 L 0.0898438 189.5 Z M 0.0898438 0 " clip-rule="nonzero"/></clipPath><clipPath id="65df1e100f"><path d="M 38.332031 41.28125 L 57.40625 41.28125 L 57.40625 104.375 L 38.332031 104.375 Z M 38.332031 41.28125 " clip-rule="nonzero"/></clipPath><clipPath id="086b3f27cd"><path d="M 36.808594 10.53125 L 59.207031 10.53125 L 59.207031 32.925781 L 36.808594 32.925781 Z M 36.808594 10.53125 " clip-rule="nonzero"/></clipPath><clipPath id="4bb993f79d"><path d="M 48.007812 10.53125 C 41.824219 10.53125 36.808594 15.542969 36.808594 21.726562 C 36.808594 27.914062 41.824219 32.925781 48.007812 32.925781 C 54.191406 32.925781 59.207031 27.914062 59.207031 21.726562 C 59.207031 15.542969 54.191406 10.53125 48.007812 10.53125 Z M 48.007812 10.53125 " clip-rule="nonzero"/></clipPath><clipPath id="e950e938ea"><path d="M 66.023438 59.066406 L 84.972656 59.066406 L 84.972656 81.496094 L 66.023438 81.496094 Z M 66.023438 59.066406 " clip-rule="nonzero"/></clipPath><clipPath id="3a3b1ce1b8"><path d="M 75.496094 59.066406 C 70.265625 59.066406 66.023438 64.082031 66.023438 70.265625 C 66.023438 76.449219 70.265625 81.460938 75.496094 81.460938 C 80.730469 81.460938 84.972656 76.449219 84.972656 70.265625 C 84.972656 64.082031 80.730469 59.066406 75.496094 59.066406 Z M 75.496094 59.066406 " clip-rule="nonzero"/></clipPath><clipPath id="00bdd6f760"><path d="M 81.328125 65.496094 L 124.371094 65.496094 L 124.371094 77.507812 L 81.328125 77.507812 Z M 81.328125 65.496094 " clip-rule="nonzero"/></clipPath><clipPath id="75f410e121"><path d="M 87.769531 41.28125 L 102.847656 41.28125 L 102.847656 53.292969 L 87.769531 53.292969 Z M 87.769531 41.28125 " clip-rule="nonzero"/></clipPath><clipPath id="7a2a53d0b0"><path d="M 95 41 L 114 41 L 114 60 L 95 60 Z M 95 41 " clip-rule="nonzero"/></clipPath><clipPath id="0cc87686c6"><path d="M 102.710938 41.285156 L 113.992188 50.117188 L 106.96875 59.085938 L 95.6875 50.253906 Z M 102.710938 41.285156 " clip-rule="nonzero"/></clipPath><clipPath id="42283099fe"><path d="M 102.710938 41.285156 L 113.972656 50.101562 L 106.949219 59.070312 L 95.6875 50.253906 Z M 102.710938 41.285156 " clip-rule="nonzero"/></clipPath><clipPath id="1cd581debc"><path d="M 101 44 L 120 44 L 120 63 L 101 63 Z M 101 44 " clip-rule="nonzero"/></clipPath><clipPath id="4d0a31a949"><path d="M 108.550781 44.402344 L 119.832031 53.234375 L 112.8125 62.203125 L 101.53125 53.371094 Z M 108.550781 44.402344 " clip-rule="nonzero"/></clipPath><clipPath id="1db69f346e"><path d="M 108.550781 44.402344 L 119.8125 53.21875 L 112.792969 62.1875 L 101.53125 53.371094 Z M 108.550781 44.402344 " clip-rule="nonzero"/></clipPath><clipPath id="8f0d4845e7"><path d="M 107 52 L 123 52 L 123 68 L 107 68 Z M 107 52 " clip-rule="nonzero"/></clipPath><clipPath id="e15cc8893a"><path d="M 113.351562 52.585938 L 122.980469 60.125 L 116.851562 67.953125 L 107.222656 60.414062 Z M 113.351562 52.585938 " clip-rule="nonzero"/></clipPath><clipPath id="b8be369667"><path d="M 113.351562 52.585938 L 122.960938 60.109375 L 116.832031 67.9375 L 107.222656 60.414062 Z M 113.351562 52.585938 " clip-rule="nonzero"/></clipPath><clipPath id="2444290d71"><path d="M 108 60 L 125 60 L 125 71 L 108 71 Z M 108 60 " clip-rule="nonzero"/></clipPath><clipPath id="1809e60989"><path d="M 109.292969 60.175781 L 124.40625 61.0625 L 123.828125 70.984375 L 108.710938 70.097656 Z M 109.292969 60.175781 " clip-rule="nonzero"/></clipPath><clipPath id="a8bdc450c2"><path d="M 109.292969 60.175781 L 124.371094 61.0625 L 123.789062 70.984375 L 108.710938 70.097656 Z M 109.292969 60.175781 " clip-rule="nonzero"/></clipPath><clipPath id="7fe3c479ca"><path d="M 110 53 L 122 53 L 122 60 L 110 60 Z M 110 53 " clip-rule="nonzero"/></clipPath><clipPath id="9cbae3e806"><path d="M 110.964844 53.542969 L 121.804688 54.175781 L 121.515625 59.160156 L 110.675781 58.523438 Z M 110.964844 53.542969 " clip-rule="nonzero"/></clipPath><clipPath id="5c41249257"><path d="M 110.964844 53.542969 L 121.800781 54.175781 L 121.511719 59.160156 L 110.675781 58.523438 Z M 110.964844 53.542969 " clip-rule="nonzero"/></clipPath><clipPath id="764cb007a4"><path d="M 68 39 L 101 39 L 101 67 L 68 67 Z M 68 39 " clip-rule="nonzero"/></clipPath><clipPath id="5178e5e13b"><path d="M 68.824219 57.917969 L 95.25 39.753906 L 100.878906 47.941406 L 74.453125 66.109375 Z M 68.824219 57.917969 " clip-rule="nonzero"/></clipPath><clipPath id="07977dc7d3"><path d="M 68.824219 57.917969 L 95.230469 39.765625 L 100.863281 47.957031 L 74.453125 66.109375 Z M 68.824219 57.917969 " clip-rule="nonzero"/></clipPath><clipPath id="be45b8248b"><path d="M 66 56 L 80 56 L 80 68 L 66 68 Z M 66 56 " clip-rule="nonzero"/></clipPath><clipPath id="f48f71ea29"><path d="M 66.960938 63.804688 L 70.363281 56.347656 L 79.425781 60.480469 L 76.023438 67.9375 Z M 66.960938 63.804688 " clip-rule="nonzero"/></clipPath><clipPath id="48976fe1b9"><path d="M 66.960938 63.804688 L 70.363281 56.347656 L 79.40625 60.46875 L 76.003906 67.929688 Z M 66.960938 63.804688 " clip-rule="nonzero"/></clipPath><clipPath id="d47b605b79"><path d="M 73 54 L 86 54 L 86 67 L 73 67 Z M 73 54 " clip-rule="nonzero"/></clipPath><clipPath id="cd7933de48"><path d="M 73.183594 61.984375 L 76.585938 54.523438 L 85.648438 58.65625 L 82.246094 66.117188 Z M 73.183594 61.984375 " clip-rule="nonzero"/></clipPath><clipPath id="cdbf6fad62"><path d="M 73.183594 61.984375 L 76.585938 54.523438 L 85.628906 58.648438 L 82.226562 66.105469 Z M 73.183594 61.984375 " clip-rule="nonzero"/></clipPath><clipPath id="bd02366bd9"><path d="M 69 42 L 92 42 L 92 64 L 69 64 Z M 69 42 " clip-rule="nonzero"/></clipPath><clipPath id="013293d199"><path d="M 69.191406 56.324219 L 84.875 42.414062 L 91.46875 49.847656 L 75.785156 63.757812 Z M 69.191406 56.324219 " clip-rule="nonzero"/></clipPath><clipPath id="30ac7e6cce"><path d="M 69.191406 56.324219 L 84.851562 42.433594 L 91.445312 49.871094 L 75.785156 63.757812 Z M 69.191406 56.324219 " clip-rule="nonzero"/></clipPath><clipPath id="ca59e365d9"><path d="M 73 41 L 96 41 L 96 64 L 73 64 Z M 73 41 " clip-rule="nonzero"/></clipPath><clipPath id="18a7c22038"><path d="M 73.054688 55.808594 L 88.738281 41.898438 L 95.332031 49.335938 L 79.648438 63.246094 Z M 73.054688 55.808594 " clip-rule="nonzero"/></clipPath><clipPath id="9cbe03c8ea"><path d="M 73.054688 55.808594 L 88.714844 41.921875 L 95.308594 49.355469 L 79.648438 63.246094 Z M 73.054688 55.808594 " clip-rule="nonzero"/></clipPath><clipPath id="87ae93cbd1"><path d="M 68 69 L 88 69 L 88 98 L 68 98 Z M 68 69 " clip-rule="nonzero"/></clipPath><clipPath id="1211945309"><path d="M 77.140625 69.882812 L 87.777344 93.875 L 78.691406 97.902344 L 68.054688 73.910156 Z M 77.140625 69.882812 " clip-rule="nonzero"/></clipPath><clipPath id="4eaab1e5ed"><path d="M 77.140625 69.882812 L 87.765625 93.84375 L 78.679688 97.875 L 68.054688 73.910156 Z M 77.140625 69.882812 " clip-rule="nonzero"/></clipPath><clipPath id="e53e22e2cd"><path d="M 88 89 L 121 89 L 121 104 L 88 104 Z M 88 89 " clip-rule="nonzero"/></clipPath><clipPath id="af195e7e19"><path d="M 88.648438 97.667969 L 119.011719 89.484375 L 120.699219 95.742188 L 90.335938 103.929688 Z M 88.648438 97.667969 " clip-rule="nonzero"/></clipPath><clipPath id="da3dc83d42"><path d="M 88.648438 97.667969 L 118.992188 89.488281 L 120.679688 95.75 L 90.335938 103.929688 Z M 88.648438 97.667969 " clip-rule="nonzero"/></clipPath><clipPath id="8cf9ed25d6"><path d="M 85 87 L 118 87 L 118 102 L 85 102 Z M 85 87 " clip-rule="nonzero"/></clipPath><clipPath id="847c31a193"><path d="M 85.628906 95.644531 L 115.992188 87.457031 L 117.679688 93.714844 L 87.316406 101.902344 Z M 85.628906 95.644531 " clip-rule="nonzero"/></clipPath><clipPath id="d8bf7bb75e"><path d="M 85.628906 95.644531 L 115.972656 87.464844 L 117.660156 93.722656 L 87.316406 101.902344 Z M 85.628906 95.644531 " clip-rule="nonzero"/></clipPath><clipPath id="a7e2dc27c3"><path d="M 66 76 L 98 76 L 98 104 L 66 104 Z M 66 76 " clip-rule="nonzero"/></clipPath><clipPath id="c0d182447a"><path d="M 72.921875 76.078125 L 97.265625 95.972656 L 91.304688 103.269531 L 66.960938 83.375 Z M 72.921875 76.078125 " clip-rule="nonzero"/></clipPath><clipPath id="095aeccee7"><path d="M 72.921875 76.078125 L 97.257812 95.964844 L 91.296875 103.261719 L 66.960938 83.375 Z M 72.921875 76.078125 " clip-rule="nonzero"/></clipPath><clipPath id="d58e0574a1"><path d="M 95 86 L 118 86 L 118 105 L 95 105 Z M 95 86 " clip-rule="nonzero"/></clipPath><clipPath id="a9e805cbf8"><path d="M 95.308594 95.816406 L 113.257812 86.292969 L 117.675781 94.617188 L 99.726562 104.140625 Z M 95.308594 95.816406 " clip-rule="nonzero"/></clipPath><clipPath id="957b1a1735"><path d="M 95.308594 95.816406 L 113.242188 86.300781 L 117.660156 94.625 L 99.726562 104.140625 Z M 95.308594 95.816406 " clip-rule="nonzero"/></clipPath><clipPath id="89feae5cb6"><path d="M 92 93 L 111 93 L 111 104 L 92 104 Z M 92 93 " clip-rule="nonzero"/></clipPath><clipPath id="690618b657"><path d="M 92.4375 94.304688 L 110.152344 93.261719 L 110.703125 102.667969 L 92.992188 103.710938 Z M 92.4375 94.304688 " clip-rule="nonzero"/></clipPath><clipPath id="bb6fe654a9"><path d="M 92.4375 94.304688 L 110.121094 93.261719 L 110.675781 102.671875 L 92.992188 103.710938 Z M 92.4375 94.304688 " clip-rule="nonzero"/></clipPath><clipPath id="7a12a835ff"><path d="M 101 87 L 122 87 L 122 104 L 101 104 Z M 101 87 " clip-rule="nonzero"/></clipPath><clipPath id="79ea4f292b"><path d="M 101.535156 95.203125 L 117.492188 87.449219 L 121.609375 95.925781 L 105.652344 103.679688 Z M 101.535156 95.203125 " clip-rule="nonzero"/></clipPath><clipPath id="c71c736027"><path d="M 101.535156 95.203125 L 117.464844 87.460938 L 121.585938 95.9375 L 105.652344 103.679688 Z M 101.535156 95.203125 " clip-rule="nonzero"/></clipPath><clipPath id="d4b41cebc6"><path d="M 79 89 L 103 89 L 103 105 L 79 105 Z M 79 89 " clip-rule="nonzero"/></clipPath><clipPath id="ab39cbbd10"><path d="M 82.042969 89.671875 L 102.855469 95.878906 L 100.160156 104.910156 L 79.347656 98.699219 Z M 82.042969 89.671875 " clip-rule="nonzero"/></clipPath><clipPath id="dbe2b42f4d"><path d="M 82.042969 89.671875 L 102.847656 95.878906 L 100.152344 104.910156 L 79.347656 98.699219 Z M 82.042969 89.671875 " clip-rule="nonzero"/></clipPath><clipPath id="18ce8730c0"><path d="M 65 73 L 84 73 L 84 97 L 65 97 Z M 65 73 " clip-rule="nonzero"/></clipPath><clipPath id="d7ab74686d"><path d="M 74.269531 73.078125 L 84 92.492188 L 75.578125 96.714844 L 65.84375 77.300781 Z M 74.269531 73.078125 " clip-rule="nonzero"/></clipPath><clipPath id="90384a171a"><path d="M 74.269531 73.078125 L 83.996094 92.488281 L 75.574219 96.710938 L 65.84375 77.300781 Z M 74.269531 73.078125 " clip-rule="nonzero"/></clipPath><clipPath id="6b9cb1c151"><path d="M 75 88 L 99 88 L 99 106 L 75 106 Z M 75 88 " clip-rule="nonzero"/></clipPath><clipPath id="0c9bc6d7cd"><path d="M 79.027344 88.046875 L 98.746094 97.15625 L 94.792969 105.710938 L 75.074219 96.601562 Z M 79.027344 88.046875 " clip-rule="nonzero"/></clipPath><clipPath id="dba5b35f57"><path d="M 79.027344 88.046875 L 98.738281 97.152344 L 94.785156 105.707031 L 75.074219 96.601562 Z M 79.027344 88.046875 " clip-rule="nonzero"/></clipPath><clipPath id="5f680ae6d9"><path d="M 37.597656 152.21875 L 187.773438 152.21875 L 187.773438 158.832031 L 37.597656 158.832031 Z M 37.597656 152.21875 " clip-rule="nonzero"/></clipPath></defs><g clip-path="url(#4faab6cb87)"><path fill="#ffffff" d="M 0.0898438 0 L 224.792969 0 L 224.792969 189.5 L 0.0898438 189.5 Z M 0.0898438 0 " fill-opacity="1" fill-rule="nonzero"/><path fill="#ffffff" d="M 0.0898438 0 L 224.792969 0 L 224.792969 189.5 L 0.0898438 189.5 Z M 0.0898438 0 " fill-opacity="1" fill-rule="nonzero"/></g><path fill="#000000" d="M 42.242188 9.96875 C 40.96875 10.492188 38.949219 12.367188 37.75 14.164062 C 33.335938 20.53125 35.433594 29.59375 41.941406 32.890625 C 51.671875 37.90625 62.445312 28.996094 59.75 18.207031 C 58.929688 14.914062 55.410156 10.71875 52.566406 9.59375 C 50.023438 8.621094 44.859375 8.769531 42.242188 9.96875 Z M 53.015625 12.140625 C 55.785156 13.488281 57.582031 16.484375 58.03125 20.53125 C 58.554688 25.625 56.757812 28.917969 52.117188 31.316406 C 48.902344 32.890625 48.300781 32.964844 45.234375 32.140625 C 32.664062 28.621094 36.03125 9.21875 48.976562 11.019531 C 50.25 11.167969 52.042969 11.691406 53.015625 12.140625 Z M 53.015625 12.140625 " fill-opacity="1" fill-rule="nonzero"/><path fill="#000000" d="M 37.378906 72.738281 L 37.378906 106.292969 L 58.328125 106.292969 L 58.328125 39.257812 L 37.378906 39.257812 Z M 50.324219 42.550781 L 55.335938 42.625 L 55.1875 72.738281 L 54.960938 102.921875 L 40.746094 102.921875 L 40.519531 73.035156 C 40.445312 52.8125 40.59375 42.925781 41.117188 42.625 C 41.566406 42.328125 42.691406 42.253906 43.589844 42.328125 C 44.484375 42.402344 47.480469 42.550781 50.324219 42.550781 Z M 50.324219 42.550781 " fill-opacity="1" fill-rule="nonzero"/><path fill="#000000" d="M 86.390625 40.828125 C 77.785156 43.976562 70.675781 50.941406 67.160156 59.628906 C 64.617188 66.070312 64.242188 75.957031 66.410156 82.472656 C 71.574219 98.203125 84.597656 107.191406 100.535156 106.066406 C 105.25 105.769531 107.492188 105.167969 111.757812 102.996094 C 116.398438 100.75 124.179688 94.308594 124.179688 92.808594 C 124.179688 92.285156 120.890625 89.515625 114.679688 84.796875 C 112.882812 83.449219 111.460938 82.625 111.460938 83.074219 C 111.460938 83.449219 110.414062 84.945312 109.214844 86.367188 C 102.628906 93.785156 90.058594 92.359375 84.96875 83.597656 C 83.847656 81.800781 83.023438 79.925781 83.023438 79.476562 C 83.023438 78.804688 88.710938 78.578125 104.652344 78.578125 L 126.351562 78.578125 L 126.875 75.132812 C 128.96875 61.203125 119.617188 45.996094 105.996094 41.277344 C 100.535156 39.332031 91.105469 39.105469 86.390625 40.828125 Z M 107.046875 45.023438 C 117.222656 49.59375 124.105469 60.304688 124.179688 71.613281 C 124.179688 74.308594 123.957031 74.835938 122.535156 75.207031 C 121.5625 75.433594 112.507812 75.65625 102.332031 75.734375 C 84.519531 75.957031 83.773438 76.03125 82.203125 77.605469 C 77.1875 82.550781 88.261719 94.308594 97.914062 94.308594 C 101.132812 94.308594 106.222656 92.285156 109.363281 89.8125 C 110.863281 88.539062 112.433594 87.566406 112.730469 87.566406 C 114.003906 87.566406 119.691406 92.210938 119.691406 93.261719 C 119.691406 94.832031 112.359375 99.925781 107.492188 101.722656 C 102.703125 103.445312 94.921875 103.820312 90.582031 102.472656 C 81.675781 99.777344 74.042969 93.335938 70.453125 85.546875 C 68.65625 81.648438 68.507812 80.300781 68.433594 72.210938 C 68.433594 64.421875 68.65625 62.699219 70.152344 59.554688 C 72.773438 53.710938 77.785156 48.46875 83.175781 45.773438 C 91.78125 41.351562 98.515625 41.203125 107.046875 45.023438 Z M 107.046875 45.023438 " fill-opacity="1" fill-rule="nonzero"/><path fill="#000000" d="M 93.5 52.363281 C 89.832031 53.039062 88.1875 54.085938 85.042969 57.605469 C 81.902344 61.050781 81.527344 63.597656 83.921875 65.847656 C 85.417969 67.195312 86.542969 67.34375 96.269531 67.34375 C 106.671875 67.34375 107.121094 67.269531 108.839844 65.472656 C 111.160156 63.222656 111.160156 62.25 108.992188 59.03125 C 105.546875 53.9375 99.414062 51.238281 93.5 52.363281 Z M 101.730469 56.257812 C 104.726562 57.757812 108.46875 61.949219 108.46875 63.671875 C 108.46875 64.046875 103.078125 64.347656 96.492188 64.347656 C 82.726562 64.347656 82.425781 64.199219 87.8125 58.804688 C 92.304688 54.234375 96.34375 53.5625 101.730469 56.257812 Z M 101.730469 56.257812 " fill-opacity="1" fill-rule="nonzero"/><path fill="#000000" d="M 37.378906 130.5625 C 37.378906 137.226562 37.601562 138.574219 38.875 140.222656 C 40.820312 142.621094 44.785156 143.519531 47.929688 142.246094 C 51.746094 140.671875 52.34375 139.023438 52.34375 130.484375 C 52.34375 123.296875 52.269531 122.769531 50.847656 122.769531 C 49.5 122.769531 49.351562 123.296875 49.351562 129.0625 C 49.351562 132.582031 49.050781 136.253906 48.601562 137.300781 C 47.703125 139.773438 44.710938 140.523438 42.242188 138.949219 C 40.445312 137.75 40.371094 137.375 40.371094 130.261719 C 40.371094 123.296875 40.296875 122.769531 38.875 122.769531 C 37.453125 122.769531 37.378906 123.296875 37.378906 130.5625 Z M 37.378906 130.5625 " fill-opacity="1" fill-rule="nonzero"/><path fill="#000000" d="M 56.832031 132.507812 L 56.832031 142.246094 L 60.726562 142.246094 L 60.425781 135.503906 C 60.125 128.613281 60.425781 127.414062 61.921875 130.5625 C 62.371094 131.609375 64.167969 134.605469 65.886719 137.300781 C 68.28125 141.121094 69.480469 142.246094 70.828125 142.246094 C 72.546875 142.246094 72.546875 142.246094 72.546875 132.507812 C 72.546875 122.769531 72.546875 122.769531 70.828125 122.769531 C 69.105469 122.769531 69.03125 122.921875 69.40625 128.613281 C 69.929688 137.976562 69.703125 138.050781 64.691406 130.035156 C 61.171875 124.269531 59.902344 122.769531 58.554688 122.769531 C 56.832031 122.769531 56.832031 122.847656 56.832031 132.507812 Z M 56.832031 132.507812 " fill-opacity="1" fill-rule="nonzero"/><path fill="#000000" d="M 77.785156 132.132812 C 77.785156 137.300781 77.710938 141.722656 77.636719 142.019531 C 77.488281 142.246094 78.160156 142.542969 79.132812 142.621094 C 80.78125 142.769531 80.78125 142.621094 80.78125 132.734375 C 80.78125 123.296875 80.703125 122.769531 79.28125 122.769531 C 77.859375 122.769531 77.785156 123.296875 77.785156 132.132812 Z M 77.785156 132.132812 " fill-opacity="1" fill-rule="nonzero"/><path fill="#000000" d="M 83.773438 123.296875 C 83.773438 123.59375 85.195312 128.015625 86.914062 133.03125 C 89.757812 141.644531 90.132812 142.246094 91.929688 142.246094 C 93.726562 142.246094 94.097656 141.644531 96.71875 133.78125 C 98.289062 129.210938 99.785156 124.792969 100.011719 124.042969 C 100.308594 123.070312 99.9375 122.769531 98.441406 122.769531 C 97.390625 122.769531 96.492188 123.144531 96.492188 123.667969 C 96.492188 124.117188 95.597656 127.414062 94.472656 130.933594 C 92.527344 137.226562 91.253906 139.921875 91.253906 137.675781 C 91.253906 137.078125 90.28125 133.558594 89.085938 129.886719 C 87.363281 124.492188 86.617188 123.070312 85.34375 122.921875 C 84.445312 122.769531 83.773438 122.921875 83.773438 123.296875 Z M 83.773438 123.296875 " fill-opacity="1" fill-rule="nonzero"/><path fill="#000000" d="M 103.230469 132.433594 L 103.230469 142.09375 L 108.839844 142.394531 C 114.003906 142.621094 114.453125 142.542969 114.453125 141.121094 C 114.453125 139.773438 114.003906 139.625 110.335938 139.847656 L 106.222656 140.148438 L 106.222656 134.007812 L 109.589844 134.007812 C 112.433594 134.007812 112.957031 133.78125 112.957031 132.507812 C 112.957031 131.234375 112.433594 131.011719 109.589844 131.011719 C 106.222656 131.011719 106.222656 131.011719 106.222656 128.3125 L 106.222656 125.617188 L 110.335938 125.917969 C 114.152344 126.140625 114.453125 126.066406 114.453125 124.417969 C 114.453125 122.847656 114.152344 122.769531 108.839844 122.769531 L 103.230469 122.769531 Z M 103.230469 132.433594 " fill-opacity="1" fill-rule="nonzero"/><path fill="#000000" d="M 118.195312 132.507812 L 118.195312 142.246094 L 120.066406 142.246094 C 121.785156 142.246094 121.9375 142.019531 121.9375 138.5 C 121.9375 135.28125 122.160156 134.753906 123.433594 134.753906 C 124.480469 134.753906 125.453125 135.878906 126.726562 138.425781 C 128.074219 141.046875 129.121094 142.171875 130.542969 142.394531 C 131.589844 142.621094 132.414062 142.621094 132.414062 142.394531 C 132.414062 142.171875 131.441406 140.222656 130.242188 138.125 C 128.222656 134.53125 128.148438 134.230469 129.417969 133.480469 C 132.339844 131.609375 131.589844 125.167969 128.222656 123.59375 C 127.175781 123.144531 124.554688 122.769531 122.3125 122.769531 L 118.195312 122.769531 Z M 126.5 126.515625 C 128.074219 127.414062 128.371094 130.261719 127.023438 131.609375 C 126.5 132.132812 125.152344 132.507812 124.03125 132.507812 C 122.011719 132.507812 121.9375 132.359375 121.9375 129.136719 C 121.9375 126.214844 122.160156 125.765625 123.507812 125.765625 C 124.332031 125.765625 125.679688 126.140625 126.5 126.515625 Z M 126.5 126.515625 " fill-opacity="1" fill-rule="nonzero"/><path fill="#000000" d="M 138.398438 123.296875 C 136.601562 124.042969 135.480469 125.992188 135.40625 128.464844 C 135.40625 131.085938 136.976562 132.808594 140.496094 134.082031 C 143.636719 135.128906 144.835938 137.226562 143.1875 138.800781 C 141.765625 140.296875 140.867188 140.296875 138.25 138.949219 C 136.304688 137.902344 136.078125 137.976562 135.40625 139.324219 C 134.65625 140.597656 134.957031 140.972656 137.425781 141.945312 C 141.167969 143.519531 145.058594 142.621094 146.554688 139.847656 C 148.277344 136.777344 147.003906 134.230469 142.664062 131.910156 C 138.472656 129.738281 137.652344 128.386719 139.445312 126.664062 C 140.417969 125.617188 141.019531 125.617188 143.039062 126.367188 C 145.582031 127.265625 146.628906 127.039062 146.628906 125.390625 C 146.628906 123.296875 141.691406 122.023438 138.398438 123.296875 Z M 138.398438 123.296875 " fill-opacity="1" fill-rule="nonzero"/><path fill="#000000" d="M 151.121094 132.734375 C 151.121094 142.171875 151.195312 142.695312 152.617188 142.695312 C 154.039062 142.695312 154.113281 142.171875 154.113281 132.734375 C 154.113281 123.296875 154.039062 122.769531 152.617188 122.769531 C 151.195312 122.769531 151.121094 123.296875 151.121094 132.734375 Z M 151.121094 132.734375 " fill-opacity="1" fill-rule="nonzero"/><path fill="#000000" d="M 157.105469 124.492188 C 157.105469 125.992188 157.40625 126.140625 160.101562 125.917969 L 163.09375 125.617188 L 163.09375 134.230469 C 163.09375 142.695312 163.09375 142.769531 164.816406 142.46875 C 166.386719 142.171875 166.460938 141.871094 166.460938 134.15625 L 166.460938 126.140625 L 169.453125 126.066406 C 171.921875 126.066406 172.523438 125.765625 172.671875 124.417969 C 172.898438 122.847656 172.746094 122.769531 165.039062 122.769531 C 157.257812 122.769531 157.105469 122.847656 157.105469 124.492188 Z M 157.105469 124.492188 " fill-opacity="1" fill-rule="nonzero"/><path fill="#000000" d="M 174.316406 123.296875 C 174.316406 123.519531 175.664062 126.214844 177.3125 129.210938 C 179.78125 133.632812 180.304688 135.429688 180.304688 138.648438 C 180.304688 142.171875 180.53125 142.695312 181.800781 142.695312 C 183.074219 142.695312 183.296875 142.171875 183.296875 138.648438 C 183.296875 135.429688 183.820312 133.632812 186.292969 129.210938 C 187.9375 126.214844 189.285156 123.519531 189.285156 123.296875 C 189.285156 122.996094 188.460938 122.769531 187.5625 122.769531 C 186.140625 122.769531 185.46875 123.59375 184.046875 126.890625 C 183.074219 129.136719 182.101562 131.011719 181.800781 131.011719 C 181.578125 131.011719 180.453125 129.136719 179.332031 126.890625 C 177.910156 123.96875 176.9375 122.769531 175.816406 122.769531 C 174.992188 122.769531 174.316406 122.996094 174.316406 123.296875 Z M 174.316406 123.296875 " fill-opacity="1" fill-rule="nonzero"/><path fill="#000000" d="M 36.628906 155.503906 L 36.628906 159.847656 L 113.105469 159.695312 L 189.660156 159.472656 L 189.882812 155.351562 L 190.109375 151.234375 L 36.628906 151.234375 Z M 187.488281 154.679688 C 187.789062 155.726562 187.636719 156.925781 187.265625 157.300781 C 186.890625 157.675781 157.707031 157.898438 112.957031 157.824219 C 42.539062 157.601562 39.25 157.523438 39.023438 156.25 C 38.273438 152.507812 34.308594 152.730469 113.257812 152.730469 L 187.039062 152.730469 Z M 187.488281 154.679688 " fill-opacity="1" fill-rule="nonzero"/><path fill="#000000" d="M 38.125 177.824219 C 38.125 182.992188 38.351562 184.191406 39.25 184.191406 C 39.996094 184.191406 40.371094 183.367188 40.371094 181.570312 C 40.371094 180.144531 40.746094 178.945312 41.117188 178.945312 C 41.566406 178.945312 42.617188 180.144531 43.4375 181.570312 C 44.335938 182.992188 45.460938 184.191406 46.058594 184.191406 C 47.480469 184.191406 47.40625 183.664062 45.460938 181.042969 C 44.039062 178.945312 43.960938 178.722656 45.085938 178.046875 C 46.882812 177.074219 46.730469 173.179688 44.933594 172.207031 C 44.113281 171.832031 42.242188 171.457031 40.820312 171.457031 L 38.125 171.457031 Z M 44.484375 174.453125 C 45.160156 175.578125 43.4375 177.449219 41.792969 177.449219 C 40.746094 177.449219 40.371094 176.925781 40.371094 175.578125 C 40.371094 174.078125 40.746094 173.703125 42.167969 173.703125 C 43.214844 173.703125 44.261719 174.078125 44.484375 174.453125 Z M 44.484375 174.453125 " fill-opacity="1" fill-rule="nonzero"/><path fill="#000000" d="M 50.25 173.179688 C 45.234375 178.496094 52.195312 187.558594 57.433594 182.691406 C 59.675781 180.59375 59.75 175.125 57.582031 172.953125 C 55.5625 170.933594 52.269531 171.007812 50.25 173.179688 Z M 55.488281 173.855469 C 58.03125 175.875 57.207031 181.941406 54.363281 181.941406 C 53.390625 181.941406 52.269531 181.570312 51.746094 181.042969 C 50.472656 179.769531 50.621094 175.5 52.042969 174.152344 C 53.464844 172.730469 53.914062 172.65625 55.488281 173.855469 Z M 55.488281 173.855469 " fill-opacity="1" fill-rule="nonzero"/><path fill="#000000" d="M 62.070312 177.824219 L 62.070312 184.191406 L 64.542969 184.191406 C 69.628906 184.191406 72.472656 181.042969 69.929688 178.199219 C 69.105469 177.300781 68.957031 176.699219 69.480469 176.324219 C 70.828125 175.578125 70.378906 173.105469 68.882812 172.207031 C 68.058594 171.832031 66.1875 171.457031 64.765625 171.457031 L 62.070312 171.457031 Z M 67.234375 173.628906 C 68.65625 174.527344 67.683594 176.699219 65.8125 176.699219 C 64.691406 176.699219 64.316406 176.175781 64.316406 174.828125 C 64.316406 172.878906 65.363281 172.503906 67.234375 173.628906 Z M 68.433594 180.070312 C 68.433594 181.117188 67.832031 181.644531 66.410156 181.792969 C 64.617188 182.019531 64.316406 181.792969 64.316406 180.070312 C 64.316406 178.347656 64.617188 178.121094 66.410156 178.347656 C 67.832031 178.496094 68.433594 179.023438 68.433594 180.070312 Z M 68.433594 180.070312 " fill-opacity="1" fill-rule="nonzero"/><path fill="#000000" d="M 74.417969 173.328125 C 71.875 175.800781 71.875 179.84375 74.417969 182.316406 C 77.5625 185.539062 81.601562 184.488281 83.023438 180.144531 C 85.195312 173.554688 79.058594 168.683594 74.417969 173.328125 Z M 80.78125 175.578125 C 81.828125 178.273438 80.628906 181.492188 78.535156 181.792969 C 75.015625 182.316406 73.296875 176.324219 76.363281 174.152344 C 78.308594 172.804688 79.957031 173.328125 80.78125 175.578125 Z M 80.78125 175.578125 " fill-opacity="1" fill-rule="nonzero"/><path fill="#000000" d="M 84.519531 172.582031 C 84.519531 173.253906 85.195312 173.703125 86.390625 173.703125 C 88.1875 173.703125 88.261719 173.855469 88.261719 178.945312 C 88.261719 183.140625 88.488281 184.191406 89.386719 184.191406 C 90.28125 184.191406 90.507812 183.140625 90.507812 178.945312 C 90.507812 173.855469 90.582031 173.703125 92.378906 173.703125 C 93.574219 173.703125 94.25 173.253906 94.25 172.582031 C 94.25 171.679688 93.203125 171.457031 89.386719 171.457031 C 85.570312 171.457031 84.519531 171.679688 84.519531 172.582031 Z M 84.519531 172.582031 " fill-opacity="1" fill-rule="nonzero"/><path fill="#000000" d="M 95.746094 177.824219 C 95.746094 182.992188 95.96875 184.191406 96.867188 184.191406 C 97.765625 184.191406 97.992188 182.992188 97.992188 177.824219 C 97.992188 172.65625 97.765625 171.457031 96.867188 171.457031 C 95.96875 171.457031 95.746094 172.65625 95.746094 177.824219 Z M 95.746094 177.824219 " fill-opacity="1" fill-rule="nonzero"/><path fill="#000000" d="M 102.554688 173.03125 C 100.085938 175.351562 100.535156 180.820312 103.378906 182.917969 C 105.023438 184.191406 105.847656 184.339844 107.492188 183.742188 C 110.414062 182.691406 110.636719 181.117188 107.792969 181.644531 C 106.371094 181.941406 105.023438 181.792969 104.351562 181.195312 C 102.855469 179.996094 102.929688 175.652344 104.425781 174.152344 C 105.773438 172.730469 105.921875 172.730469 107.71875 173.703125 C 109.441406 174.601562 110.710938 173.179688 109.140625 172.128906 C 107.34375 171.007812 104.351562 171.382812 102.554688 173.03125 Z M 102.554688 173.03125 " fill-opacity="1" fill-rule="nonzero"/><path fill="#000000" d="M 112.507812 173.328125 C 111.011719 175.578125 111.910156 177.074219 115.800781 178.722656 C 119.167969 180.144531 118.496094 181.570312 114.527344 181.417969 C 111.085938 181.269531 110.488281 182.316406 113.257812 183.515625 C 116.847656 185.164062 121.1875 182.46875 119.992188 179.320312 C 119.691406 178.648438 118.195312 177.449219 116.472656 176.625 C 113.855469 175.203125 113.628906 174.976562 114.679688 173.929688 C 115.5 173.03125 116.101562 172.953125 117.296875 173.628906 C 119.09375 174.601562 120.589844 173.179688 118.867188 172.128906 C 116.773438 170.859375 113.78125 171.382812 112.507812 173.328125 Z M 112.507812 173.328125 " fill-opacity="1" fill-rule="nonzero"/><path fill="#000000" d="M 127.25 172.503906 C 126.652344 173.179688 126.425781 174.453125 126.726562 175.5 C 127.023438 176.625 126.726562 177.597656 126.050781 178.199219 C 123.285156 180.445312 126.277344 184.789062 129.945312 183.890625 C 132.863281 183.214844 133.3125 183.214844 134.882812 183.816406 C 135.78125 184.191406 136.15625 183.964844 136.15625 183.140625 C 136.15625 182.46875 135.78125 181.941406 135.332031 181.941406 C 134.507812 181.941406 134.65625 180.746094 135.78125 177.972656 C 136.15625 177 136.003906 176.773438 135.105469 177.148438 C 134.507812 177.375 133.761719 178.273438 133.460938 179.097656 L 133.011719 180.59375 L 131.441406 179.097656 C 130.019531 177.671875 130.019531 177.523438 131.214844 176.324219 C 133.085938 174.453125 132.488281 171.90625 130.09375 171.605469 C 129.046875 171.457031 127.773438 171.90625 127.25 172.503906 Z M 130.765625 174.226562 C 130.390625 176.101562 128.671875 176.324219 128.671875 174.527344 C 128.671875 173.628906 129.121094 172.953125 129.867188 172.953125 C 130.542969 172.953125 130.917969 173.480469 130.765625 174.226562 Z M 129.945312 180.445312 C 130.992188 182.019531 130.167969 182.917969 128.371094 182.242188 C 126.949219 181.71875 126.726562 178.945312 128.148438 178.945312 C 128.671875 178.945312 129.496094 179.621094 129.945312 180.445312 Z M 129.945312 180.445312 " fill-opacity="1" fill-rule="nonzero"/><path fill="#000000" d="M 142.589844 177.300781 C 140.34375 184.039062 140.34375 184.191406 141.691406 184.191406 C 142.289062 184.191406 142.964844 183.367188 143.1875 182.316406 C 143.5625 180.894531 144.160156 180.445312 145.808594 180.445312 C 147.453125 180.445312 148.050781 180.894531 148.425781 182.316406 C 148.726562 183.367188 149.472656 184.191406 150.074219 184.191406 C 150.746094 184.191406 151.121094 183.742188 150.894531 183.292969 C 150.746094 182.765625 149.773438 179.84375 148.800781 176.851562 C 146.480469 169.507812 145.132812 169.585938 142.589844 177.300781 Z M 146.628906 175.5 C 146.628906 176.101562 146.855469 177.074219 147.078125 177.75 C 147.378906 178.648438 147.078125 178.945312 145.957031 178.945312 C 144.234375 178.945312 144.160156 178.722656 144.835938 176.101562 C 145.359375 174.304688 146.628906 173.855469 146.628906 175.5 Z M 146.628906 175.5 " fill-opacity="1" fill-rule="nonzero"/><path fill="#000000" d="M 152.617188 177.824219 C 152.617188 182.992188 152.84375 184.191406 153.738281 184.191406 C 154.636719 184.191406 154.863281 182.992188 154.863281 177.824219 C 154.863281 172.65625 154.636719 171.457031 153.738281 171.457031 C 152.84375 171.457031 152.617188 172.65625 152.617188 177.824219 Z M 152.617188 177.824219 " fill-opacity="1" fill-rule="nonzero"/><path fill="#000000" d="M 163.09375 172.953125 C 162.269531 173.777344 161.449219 175.277344 161.148438 176.324219 C 160.027344 180.894531 164.738281 185.386719 168.78125 183.515625 C 171.324219 182.390625 170.425781 181.195312 167.359375 181.71875 C 165.265625 182.019531 164.738281 181.792969 163.992188 180.070312 C 162.195312 176.25 165.039062 171.90625 168.257812 173.628906 C 169.976562 174.601562 170.875 173.855469 169.753906 172.429688 C 168.480469 171.007812 164.816406 171.230469 163.09375 172.953125 Z M 163.09375 172.953125 " fill-opacity="1" fill-rule="nonzero"/><path fill="#000000" d="M 172.820312 177.824219 L 172.820312 184.191406 L 176.5625 184.191406 C 179.40625 184.191406 180.304688 183.890625 180.304688 183.066406 C 180.304688 182.316406 179.480469 181.941406 177.6875 181.941406 L 175.066406 181.941406 L 175.066406 176.699219 C 175.066406 172.503906 174.84375 171.457031 173.945312 171.457031 C 173.046875 171.457031 172.820312 172.65625 172.820312 177.824219 Z M 172.820312 177.824219 " fill-opacity="1" fill-rule="nonzero"/><path fill="#000000" d="M 181.800781 176.324219 C 181.800781 180.21875 182.101562 181.492188 183.296875 182.691406 C 184.792969 184.191406 187.414062 184.640625 189.058594 183.589844 C 191.453125 182.09375 192.652344 171.457031 190.40625 171.457031 C 189.507812 171.457031 189.285156 172.429688 189.285156 175.726562 C 189.285156 180.894531 188.609375 182.167969 186.214844 181.792969 C 184.570312 181.570312 184.421875 181.195312 184.195312 176.476562 C 184.046875 172.65625 183.746094 171.457031 182.925781 171.457031 C 182.027344 171.457031 181.800781 172.582031 181.800781 176.324219 Z M 181.800781 176.324219 " fill-opacity="1" fill-rule="nonzero"/><path fill="#000000" d="M 194.523438 177.074219 C 194.523438 180.144531 194.523438 182.917969 194.523438 183.214844 C 194.449219 184.265625 199.3125 184.265625 201.257812 183.214844 C 203.578125 182.019531 204.027344 179.996094 202.378906 178.199219 C 201.558594 177.300781 201.40625 176.699219 201.929688 176.324219 C 203.277344 175.578125 202.828125 173.105469 201.332031 172.207031 C 200.507812 171.832031 198.636719 171.457031 197.214844 171.457031 L 194.523438 171.457031 Z M 199.6875 173.628906 C 201.257812 174.601562 200.058594 176.699219 197.890625 176.699219 C 196.542969 176.699219 196.019531 176.324219 196.019531 175.351562 C 196.019531 173.03125 197.589844 172.28125 199.6875 173.628906 Z M 200.882812 180.070312 C 200.882812 181.195312 200.285156 181.644531 198.414062 181.792969 C 196.019531 182.019531 195.871094 181.867188 196.691406 178.347656 C 196.769531 178.199219 197.664062 178.199219 198.863281 178.347656 C 200.285156 178.496094 200.882812 179.023438 200.882812 180.070312 Z M 200.882812 180.070312 " fill-opacity="1" fill-rule="nonzero"/><g clip-path="url(#65df1e100f)"><path fill="#000000" d="M 38.332031 41.28125 L 57.40625 41.28125 L 57.40625 104.390625 L 38.332031 104.390625 Z M 38.332031 41.28125 " fill-opacity="1" fill-rule="nonzero"/></g><g clip-path="url(#086b3f27cd)"><g clip-path="url(#4bb993f79d)"><path fill="#000000" d="M 36.808594 10.53125 L 59.207031 10.53125 L 59.207031 32.925781 L 36.808594 32.925781 Z M 36.808594 10.53125 " fill-opacity="1" fill-rule="nonzero"/></g></g><g clip-path="url(#e950e938ea)"><g clip-path="url(#3a3b1ce1b8)"><path fill="#000000" d="M 66.023438 59.066406 L 84.972656 59.066406 L 84.972656 81.496094 L 66.023438 81.496094 Z M 66.023438 59.066406 " fill-opacity="1" fill-rule="nonzero"/></g></g><g clip-path="url(#00bdd6f760)"><path fill="#000000" d="M 81.328125 65.496094 L 124.351562 65.496094 L 124.351562 77.507812 L 81.328125 77.507812 Z M 81.328125 65.496094 " fill-opacity="1" fill-rule="nonzero"/></g><g clip-path="url(#75f410e121)"><path fill="#000000" d="M 87.769531 41.28125 L 102.828125 41.28125 L 102.828125 53.292969 L 87.769531 53.292969 Z M 87.769531 41.28125 " fill-opacity="1" fill-rule="nonzero"/></g><g clip-path="url(#7a2a53d0b0)"><g clip-path="url(#0cc87686c6)"><g clip-path="url(#42283099fe)"><path fill="#000000" d="M 102.710938 41.285156 L 113.957031 50.089844 L 106.933594 59.058594 L 95.6875 50.253906 Z M 102.710938 41.285156 " fill-opacity="1" fill-rule="nonzero"/></g></g></g><g clip-path="url(#1cd581debc)"><g clip-path="url(#4d0a31a949)"><g clip-path="url(#1db69f346e)"><path fill="#000000" d="M 108.550781 44.402344 L 119.796875 53.207031 L 112.777344 62.175781 L 101.53125 53.371094 Z M 108.550781 44.402344 " fill-opacity="1" fill-rule="nonzero"/></g></g></g><g clip-path="url(#8f0d4845e7)"><g clip-path="url(#e15cc8893a)"><g clip-path="url(#b8be369667)"><path fill="#000000" d="M 113.351562 52.585938 L 122.949219 60.101562 L 116.824219 67.925781 L 107.222656 60.414062 Z M 113.351562 52.585938 " fill-opacity="1" fill-rule="nonzero"/></g></g></g><g clip-path="url(#2444290d71)"><g clip-path="url(#1809e60989)"><g clip-path="url(#a8bdc450c2)"><path fill="#000000" d="M 109.292969 60.175781 L 124.367188 61.0625 L 123.789062 70.980469 L 108.710938 70.097656 Z M 109.292969 60.175781 " fill-opacity="1" fill-rule="nonzero"/></g></g></g><g clip-path="url(#7fe3c479ca)"><g clip-path="url(#9cbae3e806)"><g clip-path="url(#5c41249257)"><path fill="#000000" d="M 110.964844 53.542969 L 121.804688 54.175781 L 121.515625 59.160156 L 110.675781 58.523438 Z M 110.964844 53.542969 " fill-opacity="1" fill-rule="nonzero"/></g></g></g><g clip-path="url(#764cb007a4)"><g clip-path="url(#5178e5e13b)"><g clip-path="url(#07977dc7d3)"><path fill="#000000" d="M 68.824219 57.917969 L 95.21875 39.773438 L 100.847656 47.964844 L 74.453125 66.109375 Z M 68.824219 57.917969 " fill-opacity="1" fill-rule="nonzero"/></g></g></g><g clip-path="url(#be45b8248b)"><g clip-path="url(#f48f71ea29)"><g clip-path="url(#48976fe1b9)"><path fill="#000000" d="M 66.960938 63.804688 L 70.363281 56.347656 L 79.394531 60.464844 L 75.996094 67.925781 Z M 66.960938 63.804688 " fill-opacity="1" fill-rule="nonzero"/></g></g></g><g clip-path="url(#d47b605b79)"><g clip-path="url(#cd7933de48)"><g clip-path="url(#cdbf6fad62)"><path fill="#000000" d="M 73.183594 61.984375 L 76.585938 54.523438 L 85.617188 58.644531 L 82.214844 66.101562 Z M 73.183594 61.984375 " fill-opacity="1" fill-rule="nonzero"/></g></g></g><g clip-path="url(#bd02366bd9)"><g clip-path="url(#013293d199)"><g clip-path="url(#30ac7e6cce)"><path fill="#000000" d="M 69.191406 56.324219 L 84.847656 42.4375 L 91.441406 49.875 L 75.785156 63.757812 Z M 69.191406 56.324219 " fill-opacity="1" fill-rule="nonzero"/></g></g></g><g clip-path="url(#ca59e365d9)"><g clip-path="url(#18a7c22038)"><g clip-path="url(#9cbe03c8ea)"><path fill="#000000" d="M 73.054688 55.808594 L 88.710938 41.925781 L 95.304688 49.359375 L 79.648438 63.246094 Z M 73.054688 55.808594 " fill-opacity="1" fill-rule="nonzero"/></g></g></g><g clip-path="url(#87ae93cbd1)"><g clip-path="url(#1211945309)"><g clip-path="url(#4eaab1e5ed)"><path fill="#000000" d="M 77.140625 69.882812 L 87.761719 93.839844 L 78.675781 97.867188 L 68.054688 73.910156 Z M 77.140625 69.882812 " fill-opacity="1" fill-rule="nonzero"/></g></g></g><g clip-path="url(#e53e22e2cd)"><g clip-path="url(#af195e7e19)"><g clip-path="url(#da3dc83d42)"><path fill="#000000" d="M 88.648438 97.667969 L 118.988281 89.492188 L 120.675781 95.75 L 90.335938 103.929688 Z M 88.648438 97.667969 " fill-opacity="1" fill-rule="nonzero"/></g></g></g><g clip-path="url(#8cf9ed25d6)"><g clip-path="url(#847c31a193)"><g clip-path="url(#d8bf7bb75e)"><path fill="#000000" d="M 85.628906 95.644531 L 115.96875 87.464844 L 117.65625 93.722656 L 87.316406 101.902344 Z M 85.628906 95.644531 " fill-opacity="1" fill-rule="nonzero"/></g></g></g><g clip-path="url(#a7e2dc27c3)"><g clip-path="url(#c0d182447a)"><g clip-path="url(#095aeccee7)"><path fill="#000000" d="M 72.921875 76.078125 L 97.265625 95.972656 L 91.304688 103.269531 L 66.960938 83.375 Z M 72.921875 76.078125 " fill-opacity="1" fill-rule="nonzero"/></g></g></g><g clip-path="url(#d58e0574a1)"><g clip-path="url(#a9e805cbf8)"><g clip-path="url(#957b1a1735)"><path fill="#000000" d="M 95.308594 95.816406 L 113.257812 86.292969 L 117.675781 94.617188 L 99.726562 104.140625 Z M 95.308594 95.816406 " fill-opacity="1" fill-rule="nonzero"/></g></g></g><g clip-path="url(#89feae5cb6)"><g clip-path="url(#690618b657)"><g clip-path="url(#bb6fe654a9)"><path fill="#000000" d="M 92.4375 94.304688 L 110.113281 93.261719 L 110.667969 102.671875 L 92.992188 103.710938 Z M 92.4375 94.304688 " fill-opacity="1" fill-rule="nonzero"/></g></g></g><g clip-path="url(#7a12a835ff)"><g clip-path="url(#79ea4f292b)"><g clip-path="url(#c71c736027)"><path fill="#000000" d="M 101.535156 95.203125 L 117.457031 87.464844 L 121.578125 95.941406 L 105.652344 103.679688 Z M 101.535156 95.203125 " fill-opacity="1" fill-rule="nonzero"/></g></g></g><g clip-path="url(#d4b41cebc6)"><g clip-path="url(#ab39cbbd10)"><g clip-path="url(#dbe2b42f4d)"><path fill="#000000" d="M 82.042969 89.671875 L 102.855469 95.878906 L 100.160156 104.910156 L 79.347656 98.699219 Z M 82.042969 89.671875 " fill-opacity="1" fill-rule="nonzero"/></g></g></g><g clip-path="url(#18ce8730c0)"><g clip-path="url(#d7ab74686d)"><g clip-path="url(#90384a171a)"><path fill="#000000" d="M 74.269531 73.078125 L 84 92.492188 L 75.578125 96.714844 L 65.84375 77.300781 Z M 74.269531 73.078125 " fill-opacity="1" fill-rule="nonzero"/></g></g></g><g clip-path="url(#6b9cb1c151)"><g clip-path="url(#0c9bc6d7cd)"><g clip-path="url(#dba5b35f57)"><path fill="#000000" d="M 79.027344 88.046875 L 98.746094 97.15625 L 94.792969 105.710938 L 75.074219 96.601562 Z M 79.027344 88.046875 " fill-opacity="1" fill-rule="nonzero"/></g></g></g><g clip-path="url(#5f680ae6d9)"><path fill="#000000" d="M 37.597656 152.21875 L 187.777344 152.21875 L 187.777344 158.832031 L 37.597656 158.832031 Z M 37.597656 152.21875 " fill-opacity="1" fill-rule="nonzero"/></g></svg>